<svg width="838" height="1320" viewBox="0 0 838 1320" fill="none" xmlns="http://www.w3.org/2000/svg">
<g id="illustration-phone-mockup">
<g id="Group 2">
<g id="iPhone-X-Mockup">
<g id="phone">
<g id="body" filter="url(#filter0_d_10_7)">
<path fill-rule="evenodd" clip-rule="evenodd" d="M227.552 161.139H610.019C646.699 161.139 676.435 189.61 676.435 224.73V1095.27C676.435 1130.39 646.699 1158.86 610.019 1158.86H227.552C190.872 1158.86 161.136 1130.39 161.136 1095.27V224.73C161.136 189.61 190.872 161.139 227.552 161.139Z" fill="#213648"/>
</g>
<g id="frame">
<path id="reflect-frame-top" opacity="0.595562" fill-rule="evenodd" clip-rule="evenodd" d="M611.497 160H225.845C207.84 161.098 191.235 169.314 176.03 184.648C185.808 176.112 203.25 164.689 226.309 164.689C226.309 164.689 595.66 164.689 611.033 164.689C634.093 164.689 651.534 176.112 661.313 184.648C646.108 169.314 629.502 161.098 611.497 160Z" fill="url(#paint0_linear_10_7)" fill-opacity="0.65"/>
<path id="reflect-frame-right" opacity="0.75" fill-rule="evenodd" clip-rule="evenodd" d="M665.999 1085.34V229.963C665.999 207.013 657.564 198.529 652.532 193.081C647.5 187.633 647.286 184.854 654.516 188.967C661.746 193.081 676.207 205.061 676.207 229.963V1085.34C676.207 1110.24 661.746 1122.22 654.516 1126.34C647.286 1130.45 647.5 1127.67 652.532 1122.22C657.564 1116.78 665.999 1108.29 665.999 1085.34Z" fill="url(#paint1_linear_10_7)"/>
<path id="reflect-frame-left" opacity="0.75" fill-rule="evenodd" clip-rule="evenodd" d="M171.344 1085.34V229.963C171.344 207.013 179.779 198.529 184.811 193.081C189.842 187.633 190.057 184.854 182.827 188.967C175.597 193.081 161.136 205.061 161.136 229.963V1085.34C161.136 1110.24 175.597 1122.22 182.827 1126.34C190.057 1130.45 189.842 1127.67 184.811 1122.22C179.779 1116.78 171.344 1108.29 171.344 1085.34Z" fill="url(#paint2_linear_10_7)"/>
</g>
<g id="controls">
<path id="vol+" fill-rule="evenodd" clip-rule="evenodd" d="M156 367.113C156 364.904 157.791 363.113 160 363.113H161.929C164.138 363.113 165.929 364.904 165.929 367.113V487.814C165.929 490.024 164.138 491.814 161.929 491.814H160C157.791 491.814 156 490.024 156 487.814V367.113Z" fill="#2E423C"/>
<path id="power" fill-rule="evenodd" clip-rule="evenodd" d="M671.071 472.086C671.071 469.877 672.862 468.086 675.071 468.086H677C679.209 468.086 681 469.877 681 472.086V557.987C681 560.196 679.209 561.987 677 561.987H675.071C672.862 561.987 671.071 560.196 671.071 557.987V472.086Z" fill="#2E423C"/>
</g>
</g>
<g id="Screen" clip-path="url(#clip0_10_7)">
<path id="Screen Mask" fill-rule="evenodd" clip-rule="evenodd" d="M373.352 184.889L224.54 184.889C202.331 184.889 186.148 200.016 186.148 219.772V1064.55C186.148 1090.31 211.153 1113.14 239.427 1113.14H598.093C625.328 1113.14 651.371 1090.13 651.371 1064.55V222.055C651.371 198.376 633.792 185.03 612.98 184.889L461.808 184.889C461.235 184.983 450.851 189.253 446.462 200.016C442.073 210.779 433.242 219.359 423.573 219.359H412.343C407.747 219.359 395.647 214.899 389.521 200.016C383.394 185.132 373.925 184.983 373.352 184.889Z" fill="white"/>
<mask id="mask0_10_7" style="mask-type:luminance" maskUnits="userSpaceOnUse" x="186" y="184" width="466" height="930">
<path id="Screen Mask_2" fill-rule="evenodd" clip-rule="evenodd" d="M373.352 184.889L224.54 184.889C202.331 184.889 186.148 200.016 186.148 219.772V1064.55C186.148 1090.31 211.153 1113.14 239.427 1113.14H598.093C625.328 1113.14 651.371 1090.13 651.371 1064.55V222.055C651.371 198.376 633.792 185.03 612.98 184.889L461.808 184.889C461.235 184.983 450.851 189.253 446.462 200.016C442.073 210.779 433.242 219.359 423.573 219.359H412.343C407.747 219.359 395.647 214.899 389.521 200.016C383.394 185.132 373.925 184.983 373.352 184.889Z" fill="white"/>
</mask>
<g mask="url(#mask0_10_7)">
<rect id="Rectangle" x="186" y="184.889" width="466" height="930" fill="url(#paint3_linear_10_7)"/>
<path id="12:49" d="M345.008 442V407.344H336.752V402.064C339.397 402.064 341.531 401.819 343.152 401.328C344.795 400.816 346.021 400.091 346.832 399.152C347.643 398.192 348.123 397.051 348.272 395.728H354.48V442H345.008ZM364.991 442V437.392V435.024C364.991 432.677 365.428 430.651 366.303 428.944C367.178 427.216 368.33 425.723 369.759 424.464C371.21 423.184 372.788 422.064 374.495 421.104C376.223 420.144 377.951 419.237 379.679 418.384C381.407 417.531 382.986 416.677 384.415 415.824C385.866 414.949 387.028 413.979 387.903 412.912C388.778 411.845 389.215 410.587 389.215 409.136C389.215 407.28 388.564 405.765 387.263 404.592C385.983 403.419 384.223 402.832 381.983 402.832C379.658 402.832 377.684 403.504 376.063 404.848C374.442 406.192 373.439 408.219 373.055 410.928H364.127C364.17 407.984 364.852 405.317 366.175 402.928C367.519 400.517 369.524 398.608 372.191 397.2C374.858 395.792 378.207 395.088 382.239 395.088C385.695 395.088 388.671 395.675 391.167 396.848C393.684 398.021 395.626 399.653 396.991 401.744C398.356 403.835 399.039 406.277 399.039 409.072C399.039 411.397 398.612 413.403 397.759 415.088C396.906 416.773 395.775 418.213 394.367 419.408C392.959 420.603 391.412 421.648 389.727 422.544C388.042 423.44 386.356 424.272 384.671 425.04C383.007 425.808 381.471 426.597 380.063 427.408C378.655 428.197 377.524 429.093 376.671 430.096C375.818 431.099 375.391 432.304 375.391 433.712V434.128H398.975V442H364.991ZM415.408 409.712V419.728H405.168V409.712H415.408ZM415.408 431.824V441.808H405.168V431.824H415.408ZM442.903 395.728H452.087V423.92H459.223V431.76H452.087V442H443.095L443.127 431.76H421.815V424.08L442.903 395.728ZM430.455 423.92H443.127V406.96L430.455 423.92ZM480.871 442.704C477.991 442.704 475.303 442.149 472.807 441.04C470.311 439.931 468.273 438.373 466.695 436.368C465.116 434.341 464.231 431.973 464.039 429.264H472.935C473.319 431.056 474.172 432.517 475.495 433.648C476.817 434.757 478.481 435.312 480.487 435.312C482.705 435.312 484.647 434.789 486.311 433.744C487.996 432.699 489.255 431.035 490.087 428.752C490.94 426.469 491.239 423.483 490.983 419.792C490.385 420.923 489.553 421.915 488.487 422.768C487.441 423.6 486.215 424.251 484.807 424.72C483.399 425.168 481.831 425.392 480.103 425.392C476.967 425.392 474.183 424.805 471.751 423.632C469.34 422.437 467.441 420.752 466.055 418.576C464.689 416.379 464.007 413.776 464.007 410.768C464.007 407.739 464.732 405.04 466.183 402.672C467.633 400.304 469.66 398.448 472.263 397.104C474.865 395.76 477.916 395.088 481.415 395.088C485.34 395.088 488.721 396.027 491.559 397.904C494.417 399.76 496.604 402.405 498.119 405.84C499.655 409.253 500.423 413.275 500.423 417.904C500.423 423.429 499.633 428.037 498.055 431.728C496.497 435.397 494.257 438.149 491.335 439.984C488.412 441.797 484.924 442.704 480.871 442.704ZM481.703 417.968C483.004 417.968 484.263 417.68 485.479 417.104C486.716 416.507 487.729 415.76 488.519 414.864C489.308 413.968 489.703 413.04 489.703 412.08C489.724 410.011 489.393 408.24 488.711 406.768C488.049 405.275 487.111 404.133 485.895 403.344C484.7 402.555 483.303 402.16 481.703 402.16C480.231 402.16 478.919 402.501 477.767 403.184C476.615 403.867 475.708 404.827 475.047 406.064C474.385 407.301 474.055 408.731 474.055 410.352C474.055 412.763 474.759 414.64 476.167 415.984C477.575 417.307 479.42 417.968 481.703 417.968Z" fill="white"/>
</g>
</g>
</g>
</g>
<g id="Group 29" clip-path="url(#clip1_10_7)">
<g id="Rectangle_2" filter="url(#filter1_d_10_7)">
<rect x="200" y="494" width="436" height="174" rx="5" fill="#FBFCFE"/>
</g>
<g id="Group 28" clip-path="url(#clip2_10_7)">
<path id="PayAPI" d="M233.62 546V531.54H238.94C239.993 531.54 240.937 531.723 241.77 532.09C242.603 532.45 243.26 532.983 243.74 533.69C244.227 534.397 244.47 535.26 244.47 536.28C244.47 537.24 244.257 538.06 243.83 538.74C243.403 539.42 242.803 539.94 242.03 540.3C241.263 540.66 240.36 540.84 239.32 540.84H236.56V546H233.62ZM236.53 538.58H239.24C239.973 538.58 240.573 538.347 241.04 537.88C241.507 537.407 241.74 536.823 241.74 536.13C241.74 535.41 241.493 534.84 241 534.42C240.507 533.993 239.907 533.78 239.2 533.78H236.53V538.58ZM249.023 546.2C248.363 546.2 247.77 546.077 247.243 545.83C246.717 545.583 246.3 545.227 245.993 544.76C245.687 544.287 245.533 543.713 245.533 543.04C245.533 541.907 245.957 541.047 246.803 540.46C247.65 539.867 248.987 539.56 250.813 539.54L252.103 539.52V538.9C252.103 538.427 251.963 538.063 251.683 537.81C251.41 537.55 250.983 537.423 250.403 537.43C249.977 537.437 249.57 537.537 249.183 537.73C248.803 537.923 248.543 538.26 248.403 538.74H245.973C246.013 537.993 246.23 537.38 246.623 536.9C247.017 536.413 247.55 536.053 248.223 535.82C248.903 535.58 249.673 535.46 250.533 535.46C251.593 535.46 252.443 535.593 253.083 535.86C253.723 536.12 254.187 536.497 254.473 536.99C254.76 537.477 254.903 538.057 254.903 538.73V546H252.463L252.223 544.22C251.87 544.967 251.427 545.483 250.893 545.77C250.367 546.057 249.743 546.2 249.023 546.2ZM250.003 544.28C250.27 544.28 250.527 544.233 250.773 544.14C251.027 544.04 251.25 543.91 251.443 543.75C251.643 543.583 251.803 543.397 251.923 543.19C252.043 542.983 252.103 542.77 252.103 542.55V541.02L251.053 541.04C250.567 541.047 250.113 541.107 249.693 541.22C249.273 541.327 248.933 541.503 248.673 541.75C248.42 541.997 248.293 542.33 248.293 542.75C248.293 543.23 248.46 543.607 248.793 543.88C249.127 544.147 249.53 544.28 250.003 544.28ZM258.727 549.3C258.021 549.3 257.521 549.24 257.227 549.12C256.941 549.007 256.797 548.95 256.797 548.95V547.09L257.817 547.13C258.264 547.157 258.624 547.133 258.897 547.06C259.171 546.993 259.377 546.903 259.517 546.79C259.664 546.677 259.767 546.557 259.827 546.43C259.887 546.31 259.931 546.213 259.957 546.14L260.147 545.57L256.127 535.66H259.017L261.497 542.4L264.007 535.66H266.857L262.667 546.06C262.307 546.94 261.927 547.613 261.527 548.08C261.127 548.547 260.694 548.867 260.227 549.04C259.767 549.213 259.267 549.3 258.727 549.3ZM266.456 546L271.636 531.54H274.716L279.886 546H276.976L275.796 542.65H270.596L269.386 546H266.456ZM271.246 540.1H275.096L273.186 534.36L271.246 540.1ZM282.058 546V531.54H287.378C288.431 531.54 289.374 531.723 290.208 532.09C291.041 532.45 291.698 532.983 292.178 533.69C292.664 534.397 292.908 535.26 292.908 536.28C292.908 537.24 292.694 538.06 292.268 538.74C291.841 539.42 291.241 539.94 290.468 540.3C289.701 540.66 288.798 540.84 287.758 540.84H284.998V546H282.058ZM284.968 538.58H287.678C288.411 538.58 289.011 538.347 289.478 537.88C289.944 537.407 290.178 536.823 290.178 536.13C290.178 535.41 289.931 534.84 289.438 534.42C288.944 533.993 288.344 533.78 287.638 533.78H284.968V538.58ZM295.104 531.54H298.014V546H295.104V531.54Z" fill="#BA4270"/>
<path id="Just Now" opacity="0.5" d="M527.218 542.59C527.218 543.357 527.131 544.01 526.958 544.55C526.784 545.09 526.474 545.5 526.028 545.78C525.588 546.06 524.961 546.2 524.148 546.2C523.634 546.2 523.151 546.14 522.698 546.02C522.251 545.9 521.954 545.81 521.808 545.75L521.938 543.98C522.144 544.053 522.381 544.147 522.648 544.26C522.921 544.367 523.258 544.42 523.658 544.42C524.311 544.42 524.758 544.24 524.998 543.88C525.244 543.52 525.368 542.913 525.368 542.06V531.54H527.218V542.59ZM534.081 546.2C533.541 546.193 533.031 546.117 532.551 545.97C532.078 545.817 531.658 545.593 531.291 545.3C530.925 545.007 530.635 544.643 530.421 544.21C530.215 543.77 530.111 543.26 530.111 542.68V535.66H531.961V542.49C531.961 543.163 532.168 543.71 532.581 544.13C533.001 544.55 533.631 544.76 534.471 544.76C535.231 544.76 535.841 544.563 536.301 544.17C536.768 543.77 537.001 543.177 537.001 542.39V535.66H538.841V546H537.371L537.181 544.02C537.055 544.54 536.838 544.96 536.531 545.28C536.231 545.6 535.868 545.837 535.441 545.99C535.021 546.137 534.568 546.207 534.081 546.2ZM545.397 546.2C544.677 546.2 544.007 546.09 543.387 545.87C542.773 545.643 542.263 545.293 541.857 544.82C541.45 544.34 541.193 543.73 541.087 542.99H542.767C542.86 543.397 543.027 543.737 543.267 544.01C543.513 544.277 543.82 544.48 544.187 544.62C544.553 544.753 544.953 544.82 545.387 544.82C546.08 544.82 546.64 544.69 547.067 544.43C547.493 544.17 547.707 543.77 547.707 543.23C547.707 542.85 547.593 542.547 547.367 542.32C547.147 542.087 546.803 541.917 546.337 541.81L544.197 541.28C543.363 541.08 542.697 540.767 542.197 540.34C541.697 539.913 541.447 539.317 541.447 538.55C541.44 537.943 541.583 537.41 541.877 536.95C542.17 536.49 542.61 536.127 543.197 535.86C543.783 535.593 544.513 535.46 545.387 535.46C546.507 535.46 547.41 535.713 548.097 536.22C548.79 536.72 549.15 537.457 549.177 538.43H547.547C547.48 537.937 547.257 537.547 546.877 537.26C546.503 536.967 546 536.82 545.367 536.82C544.707 536.82 544.17 536.953 543.757 537.22C543.343 537.48 543.137 537.887 543.137 538.44C543.137 538.807 543.283 539.097 543.577 539.31C543.87 539.517 544.303 539.69 544.877 539.83L546.947 540.35C547.427 540.477 547.82 540.643 548.127 540.85C548.44 541.057 548.687 541.287 548.867 541.54C549.053 541.793 549.183 542.06 549.257 542.34C549.337 542.613 549.377 542.877 549.377 543.13C549.377 543.763 549.217 544.31 548.897 544.77C548.583 545.223 548.13 545.577 547.537 545.83C546.95 546.077 546.237 546.2 545.397 546.2ZM556.999 537.01H554.669V543.44C554.669 543.807 554.706 544.077 554.779 544.25C554.859 544.417 554.989 544.523 555.169 544.57C555.356 544.617 555.609 544.64 555.929 544.64H557.059V545.88C556.933 545.927 556.739 545.967 556.479 546C556.226 546.033 555.909 546.05 555.529 546.05C554.816 546.05 554.263 545.953 553.869 545.76C553.476 545.567 553.199 545.28 553.039 544.9C552.886 544.52 552.809 544.053 552.809 543.5V537.01H551.129V535.66H552.859L553.309 532.65H554.669V535.65H556.999V537.01ZM574.056 531.54H575.906V546H574.256L566.496 534.6V546H564.646V531.54H566.416L574.056 542.78V531.54ZM583.317 546.2C582.364 546.2 581.53 545.997 580.817 545.59C580.104 545.177 579.55 544.573 579.157 543.78C578.764 542.987 578.567 542.017 578.567 540.87C578.567 539.79 578.75 538.843 579.117 538.03C579.484 537.217 580.02 536.587 580.727 536.14C581.44 535.687 582.304 535.46 583.317 535.46C584.27 535.46 585.097 535.67 585.797 536.09C586.504 536.503 587.05 537.113 587.437 537.92C587.824 538.727 588.017 539.71 588.017 540.87C588.017 541.923 587.837 542.85 587.477 543.65C587.124 544.45 586.597 545.077 585.897 545.53C585.204 545.977 584.344 546.2 583.317 546.2ZM583.317 544.74C583.937 544.74 584.46 544.583 584.887 544.27C585.314 543.957 585.637 543.507 585.857 542.92C586.077 542.333 586.187 541.637 586.187 540.83C586.187 540.09 586.09 539.427 585.897 538.84C585.704 538.247 585.394 537.777 584.967 537.43C584.547 537.083 583.997 536.91 583.317 536.91C582.69 536.91 582.16 537.067 581.727 537.38C581.294 537.687 580.964 538.133 580.737 538.72C580.517 539.307 580.407 540.01 580.407 540.83C580.407 541.557 580.507 542.217 580.707 542.81C580.907 543.403 581.22 543.873 581.647 544.22C582.074 544.567 582.63 544.74 583.317 544.74ZM603.666 535.66L600.536 546H598.716L596.356 538.37L594.116 546H592.306L589.116 535.66H590.826L593.196 543.61H593.356L595.686 535.66H597.086L599.506 543.59H599.666L601.936 535.66H603.666Z" fill="#36536B"/>
</g>
<path id="The payment has been" d="M232.46 565.24V563.54H243.4V565.24H238.99V578H237.13V565.24H232.46ZM245.405 578V563.14H247.205V569.18C247.378 568.893 247.612 568.627 247.905 568.38C248.198 568.127 248.555 567.923 248.975 567.77C249.395 567.61 249.882 567.53 250.435 567.53C251.108 567.53 251.718 567.657 252.265 567.91C252.812 568.157 253.245 568.51 253.565 568.97C253.885 569.43 254.045 569.977 254.045 570.61V578H252.195V570.98C252.195 570.36 251.982 569.883 251.555 569.55C251.135 569.21 250.585 569.04 249.905 569.04C249.445 569.04 249.012 569.117 248.605 569.27C248.198 569.417 247.868 569.643 247.615 569.95C247.368 570.25 247.245 570.633 247.245 571.1V578H245.405ZM258.248 573.26C258.248 573.913 258.355 574.507 258.568 575.04C258.788 575.567 259.118 575.987 259.558 576.3C260.005 576.613 260.562 576.77 261.228 576.77C261.888 576.77 262.455 576.617 262.928 576.31C263.408 576.003 263.715 575.56 263.848 574.98H265.598C265.472 575.68 265.192 576.27 264.758 576.75C264.325 577.23 263.802 577.593 263.188 577.84C262.575 578.08 261.935 578.2 261.268 578.2C260.302 578.2 259.452 577.99 258.718 577.57C257.985 577.15 257.412 576.547 256.998 575.76C256.585 574.973 256.378 574.03 256.378 572.93C256.378 571.843 256.565 570.89 256.938 570.07C257.312 569.25 257.852 568.61 258.558 568.15C259.272 567.69 260.128 567.46 261.128 567.46C262.102 567.46 262.925 567.67 263.598 568.09C264.272 568.51 264.782 569.103 265.128 569.87C265.482 570.63 265.658 571.533 265.658 572.58V573.26H258.248ZM258.258 572.01H263.878C263.878 571.417 263.778 570.883 263.578 570.41C263.378 569.93 263.072 569.553 262.658 569.28C262.252 569 261.738 568.86 261.118 568.86C260.472 568.86 259.935 569.017 259.508 569.33C259.088 569.637 258.772 570.033 258.558 570.52C258.352 571 258.252 571.497 258.258 572.01ZM272.671 581.22V567.66H274.511L274.531 569.46C274.651 569.247 274.804 569.023 274.991 568.79C275.184 568.557 275.417 568.34 275.691 568.14C275.971 567.94 276.294 567.777 276.661 567.65C277.034 567.523 277.457 567.46 277.931 567.46C278.757 567.46 279.484 567.65 280.111 568.03C280.744 568.403 281.237 568.977 281.591 569.75C281.944 570.523 282.121 571.503 282.121 572.69C282.121 573.877 281.947 574.88 281.601 575.7C281.261 576.513 280.767 577.133 280.121 577.56C279.474 577.987 278.694 578.2 277.781 578.2C277.321 578.2 276.911 578.133 276.551 578C276.197 577.873 275.887 577.707 275.621 577.5C275.361 577.287 275.141 577.06 274.961 576.82C274.787 576.58 274.644 576.35 274.531 576.13V581.22H272.671ZM277.431 576.76C278.284 576.76 278.981 576.437 279.521 575.79C280.061 575.137 280.331 574.123 280.331 572.75C280.331 571.57 280.084 570.633 279.591 569.94C279.097 569.247 278.377 568.9 277.431 568.9C276.471 568.9 275.744 569.257 275.251 569.97C274.757 570.677 274.511 571.603 274.511 572.75C274.511 573.49 274.621 574.163 274.841 574.77C275.061 575.377 275.387 575.86 275.821 576.22C276.254 576.58 276.791 576.76 277.431 576.76ZM287.269 578.2C286.602 578.2 286.012 578.083 285.499 577.85C284.986 577.61 284.582 577.267 284.289 576.82C284.002 576.373 283.859 575.833 283.859 575.2C283.859 574.053 284.259 573.2 285.059 572.64C285.859 572.08 287.142 571.78 288.909 571.74L290.759 571.69V570.88C290.759 570.247 290.569 569.747 290.189 569.38C289.809 569.007 289.219 568.82 288.419 568.82C287.826 568.827 287.302 568.967 286.849 569.24C286.402 569.513 286.112 569.96 285.979 570.58H284.349C284.389 569.907 284.579 569.34 284.919 568.88C285.259 568.413 285.732 568.06 286.339 567.82C286.952 567.58 287.676 567.46 288.509 567.46C289.409 567.46 290.156 567.587 290.749 567.84C291.349 568.093 291.796 568.467 292.089 568.96C292.389 569.453 292.539 570.06 292.539 570.78V578H290.959L290.829 576.06C290.429 576.867 289.919 577.427 289.299 577.74C288.686 578.047 288.009 578.2 287.269 578.2ZM287.829 576.87C288.176 576.87 288.519 576.807 288.859 576.68C289.206 576.553 289.522 576.383 289.809 576.17C290.096 575.95 290.322 575.707 290.489 575.44C290.662 575.167 290.752 574.887 290.759 574.6V572.83L289.219 572.86C288.432 572.873 287.772 572.953 287.239 573.1C286.712 573.247 286.316 573.477 286.049 573.79C285.789 574.103 285.659 574.513 285.659 575.02C285.659 575.6 285.859 576.053 286.259 576.38C286.666 576.707 287.189 576.87 287.829 576.87ZM296.386 581.3C295.779 581.3 295.363 581.257 295.136 581.17C294.909 581.083 294.796 581.04 294.796 581.04V579.84L295.846 579.86C296.233 579.873 296.553 579.847 296.806 579.78C297.059 579.713 297.263 579.623 297.416 579.51C297.569 579.397 297.686 579.27 297.766 579.13C297.853 578.99 297.923 578.857 297.976 578.73L298.336 577.75L294.296 567.66H296.166L299.216 575.64L302.246 567.66H304.056L299.696 578.78C299.429 579.433 299.129 579.943 298.796 580.31C298.469 580.677 298.103 580.933 297.696 581.08C297.296 581.227 296.859 581.3 296.386 581.3ZM306.03 578V567.66H307.81V569.16C308.097 568.707 308.49 568.31 308.99 567.97C309.49 567.63 310.14 567.46 310.94 567.46C311.313 567.46 311.693 567.523 312.08 567.65C312.473 567.777 312.833 567.967 313.16 568.22C313.487 568.473 313.74 568.783 313.92 569.15C314.24 568.643 314.673 568.237 315.22 567.93C315.767 567.617 316.383 567.46 317.07 567.46C317.43 567.46 317.807 567.517 318.2 567.63C318.593 567.737 318.957 567.93 319.29 568.21C319.63 568.483 319.907 568.867 320.12 569.36C320.333 569.847 320.44 570.473 320.44 571.24V578H318.58V571.42C318.58 570.793 318.48 570.31 318.28 569.97C318.08 569.623 317.817 569.38 317.49 569.24C317.17 569.1 316.827 569.03 316.46 569.03C316.14 569.03 315.8 569.093 315.44 569.22C315.08 569.347 314.773 569.56 314.52 569.86C314.267 570.16 314.14 570.57 314.14 571.09V578H312.3V570.88C312.3 570.473 312.19 570.133 311.97 569.86C311.757 569.587 311.487 569.38 311.16 569.24C310.84 569.1 310.52 569.03 310.2 569.03C309.847 569.03 309.49 569.1 309.13 569.24C308.777 569.38 308.477 569.603 308.23 569.91C307.99 570.21 307.87 570.603 307.87 571.09V578H306.03ZM324.655 573.26C324.655 573.913 324.761 574.507 324.975 575.04C325.195 575.567 325.525 575.987 325.965 576.3C326.411 576.613 326.968 576.77 327.635 576.77C328.295 576.77 328.861 576.617 329.335 576.31C329.815 576.003 330.121 575.56 330.255 574.98H332.005C331.878 575.68 331.598 576.27 331.165 576.75C330.731 577.23 330.208 577.593 329.595 577.84C328.981 578.08 328.341 578.2 327.675 578.2C326.708 578.2 325.858 577.99 325.125 577.57C324.391 577.15 323.818 576.547 323.405 575.76C322.991 574.973 322.785 574.03 322.785 572.93C322.785 571.843 322.971 570.89 323.345 570.07C323.718 569.25 324.258 568.61 324.965 568.15C325.678 567.69 326.535 567.46 327.535 567.46C328.508 567.46 329.331 567.67 330.005 568.09C330.678 568.51 331.188 569.103 331.535 569.87C331.888 570.63 332.065 571.533 332.065 572.58V573.26H324.655ZM324.665 572.01H330.285C330.285 571.417 330.185 570.883 329.985 570.41C329.785 569.93 329.478 569.553 329.065 569.28C328.658 569 328.145 568.86 327.525 568.86C326.878 568.86 326.341 569.017 325.915 569.33C325.495 569.637 325.178 570.033 324.965 570.52C324.758 571 324.658 571.497 324.665 572.01ZM334.604 578V567.66H336.394V569.16C336.561 568.873 336.791 568.603 337.084 568.35C337.384 568.097 337.744 567.893 338.164 567.74C338.591 567.587 339.081 567.51 339.634 567.51C340.288 567.51 340.888 567.64 341.434 567.9C341.988 568.16 342.428 568.567 342.754 569.12C343.088 569.667 343.254 570.373 343.254 571.24V578H341.404V571.42C341.404 570.613 341.191 570.017 340.764 569.63C340.344 569.237 339.798 569.04 339.124 569.04C338.658 569.04 338.221 569.117 337.814 569.27C337.408 569.417 337.078 569.643 336.824 569.95C336.571 570.25 336.444 570.63 336.444 571.09V578H334.604ZM350.912 569.01H348.582V575.44C348.582 575.807 348.619 576.077 348.692 576.25C348.772 576.417 348.902 576.523 349.082 576.57C349.269 576.617 349.522 576.64 349.842 576.64H350.972V577.88C350.846 577.927 350.652 577.967 350.392 578C350.139 578.033 349.822 578.05 349.442 578.05C348.729 578.05 348.176 577.953 347.782 577.76C347.389 577.567 347.112 577.28 346.952 576.9C346.799 576.52 346.722 576.053 346.722 575.5V569.01H345.042V567.66H346.772L347.222 564.65H348.582V567.65H350.912V569.01ZM358.178 578V563.14H359.978V569.18C360.152 568.893 360.385 568.627 360.678 568.38C360.972 568.127 361.328 567.923 361.748 567.77C362.168 567.61 362.655 567.53 363.208 567.53C363.882 567.53 364.492 567.657 365.038 567.91C365.585 568.157 366.018 568.51 366.338 568.97C366.658 569.43 366.818 569.977 366.818 570.61V578H364.968V570.98C364.968 570.36 364.755 569.883 364.328 569.55C363.908 569.21 363.358 569.04 362.678 569.04C362.218 569.04 361.785 569.117 361.378 569.27C360.972 569.417 360.642 569.643 360.388 569.95C360.142 570.25 360.018 570.633 360.018 571.1V578H358.178ZM372.523 578.2C371.856 578.2 371.266 578.083 370.753 577.85C370.239 577.61 369.836 577.267 369.543 576.82C369.256 576.373 369.113 575.833 369.113 575.2C369.113 574.053 369.513 573.2 370.313 572.64C371.113 572.08 372.396 571.78 374.163 571.74L376.013 571.69V570.88C376.013 570.247 375.823 569.747 375.443 569.38C375.063 569.007 374.473 568.82 373.673 568.82C373.079 568.827 372.556 568.967 372.103 569.24C371.656 569.513 371.366 569.96 371.233 570.58H369.603C369.643 569.907 369.833 569.34 370.173 568.88C370.513 568.413 370.986 568.06 371.593 567.82C372.206 567.58 372.929 567.46 373.763 567.46C374.663 567.46 375.409 567.587 376.003 567.84C376.603 568.093 377.049 568.467 377.343 568.96C377.643 569.453 377.793 570.06 377.793 570.78V578H376.213L376.083 576.06C375.683 576.867 375.173 577.427 374.553 577.74C373.939 578.047 373.263 578.2 372.523 578.2ZM373.083 576.87C373.429 576.87 373.773 576.807 374.113 576.68C374.459 576.553 374.776 576.383 375.063 576.17C375.349 575.95 375.576 575.707 375.743 575.44C375.916 575.167 376.006 574.887 376.013 574.6V572.83L374.473 572.86C373.686 572.873 373.026 572.953 372.493 573.1C371.966 573.247 371.569 573.477 371.303 573.79C371.043 574.103 370.913 574.513 370.913 575.02C370.913 575.6 371.113 576.053 371.513 576.38C371.919 576.707 372.443 576.87 373.083 576.87ZM384.446 578.2C383.726 578.2 383.056 578.09 382.436 577.87C381.823 577.643 381.313 577.293 380.906 576.82C380.499 576.34 380.243 575.73 380.136 574.99H381.816C381.909 575.397 382.076 575.737 382.316 576.01C382.563 576.277 382.869 576.48 383.236 576.62C383.603 576.753 384.003 576.82 384.436 576.82C385.129 576.82 385.689 576.69 386.116 576.43C386.543 576.17 386.756 575.77 386.756 575.23C386.756 574.85 386.643 574.547 386.416 574.32C386.196 574.087 385.853 573.917 385.386 573.81L383.246 573.28C382.413 573.08 381.746 572.767 381.246 572.34C380.746 571.913 380.496 571.317 380.496 570.55C380.489 569.943 380.633 569.41 380.926 568.95C381.219 568.49 381.659 568.127 382.246 567.86C382.833 567.593 383.563 567.46 384.436 567.46C385.556 567.46 386.459 567.713 387.146 568.22C387.839 568.72 388.199 569.457 388.226 570.43H386.596C386.529 569.937 386.306 569.547 385.926 569.26C385.553 568.967 385.049 568.82 384.416 568.82C383.756 568.82 383.219 568.953 382.806 569.22C382.393 569.48 382.186 569.887 382.186 570.44C382.186 570.807 382.333 571.097 382.626 571.31C382.919 571.517 383.353 571.69 383.926 571.83L385.996 572.35C386.476 572.477 386.869 572.643 387.176 572.85C387.489 573.057 387.736 573.287 387.916 573.54C388.103 573.793 388.233 574.06 388.306 574.34C388.386 574.613 388.426 574.877 388.426 575.13C388.426 575.763 388.266 576.31 387.946 576.77C387.633 577.223 387.179 577.577 386.586 577.83C385.999 578.077 385.286 578.2 384.446 578.2ZM400.652 578.2C400.045 578.2 399.532 578.12 399.112 577.96C398.698 577.8 398.358 577.597 398.092 577.35C397.825 577.097 397.618 576.84 397.472 576.58C397.325 576.313 397.218 576.08 397.152 575.88L396.952 578H395.542V563.14H397.402V569.3C397.488 569.127 397.618 568.937 397.792 568.73C397.972 568.523 398.202 568.323 398.482 568.13C398.762 567.937 399.092 567.777 399.472 567.65C399.858 567.523 400.298 567.46 400.792 567.46C402.085 567.46 403.112 567.91 403.872 568.81C404.638 569.71 405.022 571.037 405.022 572.79C405.022 573.877 404.858 574.827 404.532 575.64C404.205 576.447 403.718 577.077 403.072 577.53C402.425 577.977 401.618 578.2 400.652 578.2ZM400.322 576.78C401.162 576.78 401.845 576.457 402.372 575.81C402.898 575.157 403.162 574.12 403.162 572.7C403.162 571.493 402.915 570.56 402.422 569.9C401.935 569.233 401.222 568.9 400.282 568.9C399.595 568.9 399.042 569.05 398.622 569.35C398.208 569.643 397.902 570.073 397.702 570.64C397.508 571.207 397.408 571.893 397.402 572.7C397.402 574.147 397.625 575.19 398.072 575.83C398.525 576.463 399.275 576.78 400.322 576.78ZM408.756 573.26C408.756 573.913 408.863 574.507 409.076 575.04C409.296 575.567 409.626 575.987 410.066 576.3C410.513 576.613 411.07 576.77 411.736 576.77C412.396 576.77 412.963 576.617 413.436 576.31C413.916 576.003 414.223 575.56 414.356 574.98H416.106C415.98 575.68 415.7 576.27 415.266 576.75C414.833 577.23 414.31 577.593 413.696 577.84C413.083 578.08 412.443 578.2 411.776 578.2C410.81 578.2 409.96 577.99 409.226 577.57C408.493 577.15 407.92 576.547 407.506 575.76C407.093 574.973 406.886 574.03 406.886 572.93C406.886 571.843 407.073 570.89 407.446 570.07C407.82 569.25 408.36 568.61 409.066 568.15C409.78 567.69 410.636 567.46 411.636 567.46C412.61 567.46 413.433 567.67 414.106 568.09C414.78 568.51 415.29 569.103 415.636 569.87C415.99 570.63 416.166 571.533 416.166 572.58V573.26H408.756ZM408.766 572.01H414.386C414.386 571.417 414.286 570.883 414.086 570.41C413.886 569.93 413.58 569.553 413.166 569.28C412.76 569 412.246 568.86 411.626 568.86C410.98 568.86 410.443 569.017 410.016 569.33C409.596 569.637 409.28 570.033 409.066 570.52C408.86 571 408.76 571.497 408.766 572.01ZM420.026 573.26C420.026 573.913 420.132 574.507 420.346 575.04C420.566 575.567 420.896 575.987 421.336 576.3C421.782 576.613 422.339 576.77 423.006 576.77C423.666 576.77 424.232 576.617 424.706 576.31C425.186 576.003 425.492 575.56 425.626 574.98H427.376C427.249 575.68 426.969 576.27 426.536 576.75C426.102 577.23 425.579 577.593 424.966 577.84C424.352 578.08 423.712 578.2 423.046 578.2C422.079 578.2 421.229 577.99 420.496 577.57C419.762 577.15 419.189 576.547 418.776 575.76C418.362 574.973 418.156 574.03 418.156 572.93C418.156 571.843 418.342 570.89 418.716 570.07C419.089 569.25 419.629 568.61 420.336 568.15C421.049 567.69 421.906 567.46 422.906 567.46C423.879 567.46 424.702 567.67 425.376 568.09C426.049 568.51 426.559 569.103 426.906 569.87C427.259 570.63 427.436 571.533 427.436 572.58V573.26H420.026ZM420.036 572.01H425.656C425.656 571.417 425.556 570.883 425.356 570.41C425.156 569.93 424.849 569.553 424.436 569.28C424.029 569 423.516 568.86 422.896 568.86C422.249 568.86 421.712 569.017 421.286 569.33C420.866 569.637 420.549 570.033 420.336 570.52C420.129 571 420.029 571.497 420.036 572.01ZM429.975 578V567.66H431.765V569.16C431.932 568.873 432.162 568.603 432.455 568.35C432.755 568.097 433.115 567.893 433.535 567.74C433.962 567.587 434.452 567.51 435.005 567.51C435.659 567.51 436.259 567.64 436.805 567.9C437.359 568.16 437.799 568.567 438.125 569.12C438.459 569.667 438.625 570.373 438.625 571.24V578H436.775V571.42C436.775 570.613 436.562 570.017 436.135 569.63C435.715 569.237 435.169 569.04 434.495 569.04C434.029 569.04 433.592 569.117 433.185 569.27C432.779 569.417 432.449 569.643 432.195 569.95C431.942 570.25 431.815 570.63 431.815 571.09V578H429.975ZM446.128 581.22V567.66H447.968L447.988 569.46C448.108 569.247 448.261 569.023 448.448 568.79C448.641 568.557 448.874 568.34 449.148 568.14C449.428 567.94 449.751 567.777 450.118 567.65C450.491 567.523 450.914 567.46 451.388 567.46C452.214 567.46 452.941 567.65 453.568 568.03C454.201 568.403 454.694 568.977 455.048 569.75C455.401 570.523 455.578 571.503 455.578 572.69C455.578 573.877 455.404 574.88 455.058 575.7C454.718 576.513 454.224 577.133 453.578 577.56C452.931 577.987 452.151 578.2 451.238 578.2C450.778 578.2 450.368 578.133 450.008 578C449.654 577.873 449.344 577.707 449.078 577.5C448.818 577.287 448.598 577.06 448.418 576.82C448.244 576.58 448.101 576.35 447.988 576.13V581.22H446.128ZM450.888 576.76C451.741 576.76 452.438 576.437 452.978 575.79C453.518 575.137 453.788 574.123 453.788 572.75C453.788 571.57 453.541 570.633 453.048 569.94C452.554 569.247 451.834 568.9 450.888 568.9C449.928 568.9 449.201 569.257 448.708 569.97C448.214 570.677 447.968 571.603 447.968 572.75C447.968 573.49 448.078 574.163 448.298 574.77C448.518 575.377 448.844 575.86 449.278 576.22C449.711 576.58 450.248 576.76 450.888 576.76ZM458.003 578V567.66H459.763V569.65C459.936 569.157 460.179 568.75 460.493 568.43C460.806 568.103 461.163 567.86 461.563 567.7C461.969 567.54 462.389 567.46 462.823 567.46C462.976 567.46 463.126 567.47 463.273 567.49C463.419 567.51 463.533 567.543 463.613 567.59V569.38C463.513 569.333 463.383 569.303 463.223 569.29C463.069 569.27 462.939 569.26 462.833 569.26C462.419 569.233 462.033 569.26 461.673 569.34C461.313 569.413 460.996 569.543 460.723 569.73C460.449 569.917 460.233 570.163 460.073 570.47C459.919 570.77 459.843 571.137 459.843 571.57V578H458.003ZM469.632 578.2C468.679 578.2 467.846 577.997 467.132 577.59C466.419 577.177 465.866 576.573 465.472 575.78C465.079 574.987 464.882 574.017 464.882 572.87C464.882 571.79 465.066 570.843 465.432 570.03C465.799 569.217 466.336 568.587 467.042 568.14C467.756 567.687 468.619 567.46 469.632 567.46C470.586 567.46 471.412 567.67 472.112 568.09C472.819 568.503 473.366 569.113 473.752 569.92C474.139 570.727 474.332 571.71 474.332 572.87C474.332 573.923 474.152 574.85 473.792 575.65C473.439 576.45 472.912 577.077 472.212 577.53C471.519 577.977 470.659 578.2 469.632 578.2ZM469.632 576.74C470.252 576.74 470.776 576.583 471.202 576.27C471.629 575.957 471.952 575.507 472.172 574.92C472.392 574.333 472.502 573.637 472.502 572.83C472.502 572.09 472.406 571.427 472.212 570.84C472.019 570.247 471.709 569.777 471.282 569.43C470.862 569.083 470.312 568.91 469.632 568.91C469.006 568.91 468.476 569.067 468.042 569.38C467.609 569.687 467.279 570.133 467.052 570.72C466.832 571.307 466.722 572.01 466.722 572.83C466.722 573.557 466.822 574.217 467.022 574.81C467.222 575.403 467.536 575.873 467.962 576.22C468.389 576.567 468.946 576.74 469.632 576.74ZM480.873 567.46C481.613 567.46 482.279 567.603 482.873 567.89C483.466 568.17 483.949 568.57 484.323 569.09C484.703 569.61 484.939 570.223 485.033 570.93H483.393C483.333 570.57 483.193 570.24 482.973 569.94C482.759 569.64 482.476 569.4 482.123 569.22C481.769 569.04 481.356 568.95 480.883 568.95C479.996 568.95 479.276 569.27 478.723 569.91C478.169 570.55 477.893 571.53 477.893 572.85C477.893 574.043 478.146 575 478.653 575.72C479.166 576.433 479.919 576.79 480.913 576.79C481.386 576.79 481.796 576.7 482.143 576.52C482.496 576.333 482.779 576.09 482.993 575.79C483.206 575.483 483.343 575.157 483.403 574.81H485.013C484.926 575.503 484.693 576.103 484.313 576.61C483.933 577.117 483.446 577.51 482.853 577.79C482.266 578.063 481.606 578.2 480.873 578.2C479.946 578.2 479.123 577.997 478.403 577.59C477.689 577.183 477.129 576.583 476.723 575.79C476.316 574.997 476.113 574.023 476.113 572.87C476.113 571.79 476.296 570.847 476.663 570.04C477.036 569.227 477.576 568.593 478.283 568.14C478.996 567.687 479.859 567.46 480.873 567.46ZM488.854 573.26C488.854 573.913 488.961 574.507 489.174 575.04C489.394 575.567 489.724 575.987 490.164 576.3C490.611 576.613 491.167 576.77 491.834 576.77C492.494 576.77 493.061 576.617 493.534 576.31C494.014 576.003 494.321 575.56 494.454 574.98H496.204C496.077 575.68 495.797 576.27 495.364 576.75C494.931 577.23 494.407 577.593 493.794 577.84C493.181 578.08 492.541 578.2 491.874 578.2C490.907 578.2 490.057 577.99 489.324 577.57C488.591 577.15 488.017 576.547 487.604 575.76C487.191 574.973 486.984 574.03 486.984 572.93C486.984 571.843 487.171 570.89 487.544 570.07C487.917 569.25 488.457 568.61 489.164 568.15C489.877 567.69 490.734 567.46 491.734 567.46C492.707 567.46 493.531 567.67 494.204 568.09C494.877 568.51 495.387 569.103 495.734 569.87C496.087 570.63 496.264 571.533 496.264 572.58V573.26H488.854ZM488.864 572.01H494.484C494.484 571.417 494.384 570.883 494.184 570.41C493.984 569.93 493.677 569.553 493.264 569.28C492.857 569 492.344 568.86 491.724 568.86C491.077 568.86 490.541 569.017 490.114 569.33C489.694 569.637 489.377 570.033 489.164 570.52C488.957 571 488.857 571.497 488.864 572.01ZM502.395 578.2C501.675 578.2 501.005 578.09 500.385 577.87C499.772 577.643 499.262 577.293 498.855 576.82C498.449 576.34 498.192 575.73 498.085 574.99H499.765C499.859 575.397 500.025 575.737 500.265 576.01C500.512 576.277 500.819 576.48 501.185 576.62C501.552 576.753 501.952 576.82 502.385 576.82C503.079 576.82 503.639 576.69 504.065 576.43C504.492 576.17 504.705 575.77 504.705 575.23C504.705 574.85 504.592 574.547 504.365 574.32C504.145 574.087 503.802 573.917 503.335 573.81L501.195 573.28C500.362 573.08 499.695 572.767 499.195 572.34C498.695 571.913 498.445 571.317 498.445 570.55C498.439 569.943 498.582 569.41 498.875 568.95C499.169 568.49 499.609 568.127 500.195 567.86C500.782 567.593 501.512 567.46 502.385 567.46C503.505 567.46 504.409 567.713 505.095 568.22C505.789 568.72 506.149 569.457 506.175 570.43H504.545C504.479 569.937 504.255 569.547 503.875 569.26C503.502 568.967 502.999 568.82 502.365 568.82C501.705 568.82 501.169 568.953 500.755 569.22C500.342 569.48 500.135 569.887 500.135 570.44C500.135 570.807 500.282 571.097 500.575 571.31C500.869 571.517 501.302 571.69 501.875 571.83L503.945 572.35C504.425 572.477 504.819 572.643 505.125 572.85C505.439 573.057 505.685 573.287 505.865 573.54C506.052 573.793 506.182 574.06 506.255 574.34C506.335 574.613 506.375 574.877 506.375 575.13C506.375 575.763 506.215 576.31 505.895 576.77C505.582 577.223 505.129 577.577 504.535 577.83C503.949 578.077 503.235 578.2 502.395 578.2ZM512.454 578.2C511.734 578.2 511.064 578.09 510.444 577.87C509.831 577.643 509.321 577.293 508.914 576.82C508.507 576.34 508.251 575.73 508.144 574.99H509.824C509.917 575.397 510.084 575.737 510.324 576.01C510.571 576.277 510.877 576.48 511.244 576.62C511.611 576.753 512.011 576.82 512.444 576.82C513.137 576.82 513.697 576.69 514.124 576.43C514.551 576.17 514.764 575.77 514.764 575.23C514.764 574.85 514.651 574.547 514.424 574.32C514.204 574.087 513.861 573.917 513.394 573.81L511.254 573.28C510.421 573.08 509.754 572.767 509.254 572.34C508.754 571.913 508.504 571.317 508.504 570.55C508.497 569.943 508.641 569.41 508.934 568.95C509.227 568.49 509.667 568.127 510.254 567.86C510.841 567.593 511.571 567.46 512.444 567.46C513.564 567.46 514.467 567.713 515.154 568.22C515.847 568.72 516.207 569.457 516.234 570.43H514.604C514.537 569.937 514.314 569.547 513.934 569.26C513.561 568.967 513.057 568.82 512.424 568.82C511.764 568.82 511.227 568.953 510.814 569.22C510.401 569.48 510.194 569.887 510.194 570.44C510.194 570.807 510.341 571.097 510.634 571.31C510.927 571.517 511.361 571.69 511.934 571.83L514.004 572.35C514.484 572.477 514.877 572.643 515.184 572.85C515.497 573.057 515.744 573.287 515.924 573.54C516.111 573.793 516.241 574.06 516.314 574.34C516.394 574.613 516.434 574.877 516.434 575.13C516.434 575.763 516.274 576.31 515.954 576.77C515.641 577.223 515.187 577.577 514.594 577.83C514.007 578.077 513.294 578.2 512.454 578.2ZM520.338 573.26C520.338 573.913 520.445 574.507 520.658 575.04C520.878 575.567 521.208 575.987 521.648 576.3C522.095 576.613 522.652 576.77 523.318 576.77C523.978 576.77 524.545 576.617 525.018 576.31C525.498 576.003 525.805 575.56 525.938 574.98H527.688C527.562 575.68 527.282 576.27 526.848 576.75C526.415 577.23 525.892 577.593 525.278 577.84C524.665 578.08 524.025 578.2 523.358 578.2C522.392 578.2 521.542 577.99 520.808 577.57C520.075 577.15 519.502 576.547 519.088 575.76C518.675 574.973 518.468 574.03 518.468 572.93C518.468 571.843 518.655 570.89 519.028 570.07C519.402 569.25 519.942 568.61 520.648 568.15C521.362 567.69 522.218 567.46 523.218 567.46C524.192 567.46 525.015 567.67 525.688 568.09C526.362 568.51 526.872 569.103 527.218 569.87C527.572 570.63 527.748 571.533 527.748 572.58V573.26H520.338ZM520.348 572.01H525.968C525.968 571.417 525.868 570.883 525.668 570.41C525.468 569.93 525.162 569.553 524.748 569.28C524.342 569 523.828 568.86 523.208 568.86C522.562 568.86 522.025 569.017 521.598 569.33C521.178 569.637 520.862 570.033 520.648 570.52C520.442 571 520.342 571.497 520.348 572.01ZM534.018 578.2C532.678 578.2 531.614 577.74 530.828 576.82C530.041 575.9 529.648 574.557 529.648 572.79C529.648 571.717 529.804 570.78 530.118 569.98C530.438 569.18 530.911 568.56 531.538 568.12C532.164 567.68 532.944 567.46 533.878 567.46C534.371 567.46 534.808 567.523 535.188 567.65C535.574 567.777 535.908 567.937 536.188 568.13C536.468 568.323 536.694 568.523 536.868 568.73C537.048 568.937 537.181 569.127 537.268 569.3V563.14H539.128V578H537.718L537.518 575.88C537.451 576.08 537.344 576.313 537.198 576.58C537.051 576.84 536.844 577.097 536.578 577.35C536.311 577.597 535.968 577.8 535.548 577.96C535.134 578.12 534.624 578.2 534.018 578.2ZM534.348 576.78C535.394 576.78 536.141 576.463 536.588 575.83C537.041 575.19 537.268 574.147 537.268 572.7C537.261 571.893 537.158 571.207 536.958 570.64C536.764 570.073 536.458 569.643 536.038 569.35C535.624 569.05 535.074 568.9 534.388 568.9C533.534 568.9 532.841 569.203 532.308 569.81C531.774 570.417 531.508 571.38 531.508 572.7C531.508 573.993 531.748 574.997 532.228 575.71C532.714 576.423 533.421 576.78 534.348 576.78ZM541.752 578V575.64H543.952V578H541.752ZM550.097 565.24V563.54H561.037V565.24H556.627V578H554.767V565.24H550.097ZM563.042 578V563.14H564.842V569.18C565.015 568.893 565.248 568.627 565.542 568.38C565.835 568.127 566.192 567.923 566.612 567.77C567.032 567.61 567.518 567.53 568.072 567.53C568.745 567.53 569.355 567.657 569.902 567.91C570.448 568.157 570.882 568.51 571.202 568.97C571.522 569.43 571.682 569.977 571.682 570.61V578H569.832V570.98C569.832 570.36 569.618 569.883 569.192 569.55C568.772 569.21 568.222 569.04 567.542 569.04C567.082 569.04 566.648 569.117 566.242 569.27C565.835 569.417 565.505 569.643 565.252 569.95C565.005 570.25 564.882 570.633 564.882 571.1V578H563.042ZM575.885 573.26C575.885 573.913 575.992 574.507 576.205 575.04C576.425 575.567 576.755 575.987 577.195 576.3C577.642 576.613 578.198 576.77 578.865 576.77C579.525 576.77 580.092 576.617 580.565 576.31C581.045 576.003 581.352 575.56 581.485 574.98H583.235C583.108 575.68 582.828 576.27 582.395 576.75C581.962 577.23 581.438 577.593 580.825 577.84C580.212 578.08 579.572 578.2 578.905 578.2C577.938 578.2 577.088 577.99 576.355 577.57C575.622 577.15 575.048 576.547 574.635 575.76C574.222 574.973 574.015 574.03 574.015 572.93C574.015 571.843 574.202 570.89 574.575 570.07C574.948 569.25 575.488 568.61 576.195 568.15C576.908 567.69 577.765 567.46 578.765 567.46C579.738 567.46 580.562 567.67 581.235 568.09C581.908 568.51 582.418 569.103 582.765 569.87C583.118 570.63 583.295 571.533 583.295 572.58V573.26H575.885ZM575.895 572.01H581.515C581.515 571.417 581.415 570.883 581.215 570.41C581.015 569.93 580.708 569.553 580.295 569.28C579.888 569 579.375 568.86 578.755 568.86C578.108 568.86 577.572 569.017 577.145 569.33C576.725 569.637 576.408 570.033 576.195 570.52C575.988 571 575.888 571.497 575.895 572.01ZM238.92 597.01H236.59V603.44C236.59 603.807 236.627 604.077 236.7 604.25C236.78 604.417 236.91 604.523 237.09 604.57C237.277 604.617 237.53 604.64 237.85 604.64H238.98V605.88C238.853 605.927 238.66 605.967 238.4 606C238.147 606.033 237.83 606.05 237.45 606.05C236.737 606.05 236.183 605.953 235.79 605.76C235.397 605.567 235.12 605.28 234.96 604.9C234.807 604.52 234.73 604.053 234.73 603.5V597.01H233.05V595.66H234.78L235.23 592.65H236.59V595.65H238.92V597.01ZM245.413 606.2C244.46 606.2 243.627 605.997 242.913 605.59C242.2 605.177 241.647 604.573 241.253 603.78C240.86 602.987 240.663 602.017 240.663 600.87C240.663 599.79 240.847 598.843 241.213 598.03C241.58 597.217 242.117 596.587 242.823 596.14C243.537 595.687 244.4 595.46 245.413 595.46C246.367 595.46 247.193 595.67 247.893 596.09C248.6 596.503 249.147 597.113 249.533 597.92C249.92 598.727 250.113 599.71 250.113 600.87C250.113 601.923 249.933 602.85 249.573 603.65C249.22 604.45 248.693 605.077 247.993 605.53C247.3 605.977 246.44 606.2 245.413 606.2ZM245.413 604.74C246.033 604.74 246.557 604.583 246.983 604.27C247.41 603.957 247.733 603.507 247.953 602.92C248.173 602.333 248.283 601.637 248.283 600.83C248.283 600.09 248.187 599.427 247.993 598.84C247.8 598.247 247.49 597.777 247.063 597.43C246.643 597.083 246.093 596.91 245.413 596.91C244.787 596.91 244.257 597.067 243.823 597.38C243.39 597.687 243.06 598.133 242.833 598.72C242.613 599.307 242.503 600.01 242.503 600.83C242.503 601.557 242.603 602.217 242.803 602.81C243.003 603.403 243.317 603.873 243.743 604.22C244.17 604.567 244.727 604.74 245.413 604.74ZM257.455 597.01H255.125V603.44C255.125 603.807 255.162 604.077 255.235 604.25C255.315 604.417 255.445 604.523 255.625 604.57C255.812 604.617 256.065 604.64 256.385 604.64H257.515V605.88C257.388 605.927 257.195 605.967 256.935 606C256.682 606.033 256.365 606.05 255.985 606.05C255.272 606.05 254.718 605.953 254.325 605.76C253.932 605.567 253.655 605.28 253.495 604.9C253.342 604.52 253.265 604.053 253.265 603.5V597.01H251.585V595.66H253.315L253.765 592.65H255.125V595.65H257.455V597.01ZM262.894 606.2C262.227 606.2 261.637 606.083 261.124 605.85C260.611 605.61 260.207 605.267 259.914 604.82C259.627 604.373 259.484 603.833 259.484 603.2C259.484 602.053 259.884 601.2 260.684 600.64C261.484 600.08 262.767 599.78 264.534 599.74L266.384 599.69V598.88C266.384 598.247 266.194 597.747 265.814 597.38C265.434 597.007 264.844 596.82 264.044 596.82C263.451 596.827 262.927 596.967 262.474 597.24C262.027 597.513 261.737 597.96 261.604 598.58H259.974C260.014 597.907 260.204 597.34 260.544 596.88C260.884 596.413 261.357 596.06 261.964 595.82C262.577 595.58 263.301 595.46 264.134 595.46C265.034 595.46 265.781 595.587 266.374 595.84C266.974 596.093 267.421 596.467 267.714 596.96C268.014 597.453 268.164 598.06 268.164 598.78V606H266.584L266.454 604.06C266.054 604.867 265.544 605.427 264.924 605.74C264.311 606.047 263.634 606.2 262.894 606.2ZM263.454 604.87C263.801 604.87 264.144 604.807 264.484 604.68C264.831 604.553 265.147 604.383 265.434 604.17C265.721 603.95 265.947 603.707 266.114 603.44C266.287 603.167 266.377 602.887 266.384 602.6V600.83L264.844 600.86C264.057 600.873 263.397 600.953 262.864 601.1C262.337 601.247 261.941 601.477 261.674 601.79C261.414 602.103 261.284 602.513 261.284 603.02C261.284 603.6 261.484 604.053 261.884 604.38C262.291 604.707 262.814 604.87 263.454 604.87ZM273.933 606.13C273.373 606.13 272.92 606.053 272.573 605.9C272.233 605.747 271.97 605.54 271.783 605.28C271.603 605.02 271.48 604.723 271.413 604.39C271.353 604.05 271.323 603.7 271.323 603.34V591.14H273.143V603.16C273.143 603.68 273.243 604.07 273.443 604.33C273.65 604.59 273.936 604.733 274.303 604.76L274.863 604.77V605.97C274.71 606.017 274.55 606.053 274.383 606.08C274.216 606.113 274.066 606.13 273.933 606.13ZM284.749 606.2C284.083 606.2 283.493 606.083 282.979 605.85C282.466 605.61 282.063 605.267 281.769 604.82C281.483 604.373 281.339 603.833 281.339 603.2C281.339 602.053 281.739 601.2 282.539 600.64C283.339 600.08 284.623 599.78 286.389 599.74L288.239 599.69V598.88C288.239 598.247 288.049 597.747 287.669 597.38C287.289 597.007 286.699 596.82 285.899 596.82C285.306 596.827 284.783 596.967 284.329 597.24C283.883 597.513 283.593 597.96 283.459 598.58H281.829C281.869 597.907 282.059 597.34 282.399 596.88C282.739 596.413 283.213 596.06 283.819 595.82C284.433 595.58 285.156 595.46 285.989 595.46C286.889 595.46 287.636 595.587 288.229 595.84C288.829 596.093 289.276 596.467 289.569 596.96C289.869 597.453 290.019 598.06 290.019 598.78V606H288.439L288.309 604.06C287.909 604.867 287.399 605.427 286.779 605.74C286.166 606.047 285.489 606.2 284.749 606.2ZM285.309 604.87C285.656 604.87 285.999 604.807 286.339 604.68C286.686 604.553 287.003 604.383 287.289 604.17C287.576 603.95 287.803 603.707 287.969 603.44C288.143 603.167 288.233 602.887 288.239 602.6V600.83L286.699 600.86C285.913 600.873 285.253 600.953 284.719 601.1C284.193 601.247 283.796 601.477 283.529 601.79C283.269 602.103 283.139 602.513 283.139 603.02C283.139 603.6 283.339 604.053 283.739 604.38C284.146 604.707 284.669 604.87 285.309 604.87ZM293.178 606V595.66H294.958V597.16C295.245 596.707 295.638 596.31 296.138 595.97C296.638 595.63 297.288 595.46 298.088 595.46C298.462 595.46 298.842 595.523 299.228 595.65C299.622 595.777 299.982 595.967 300.308 596.22C300.635 596.473 300.888 596.783 301.068 597.15C301.388 596.643 301.822 596.237 302.368 595.93C302.915 595.617 303.532 595.46 304.218 595.46C304.578 595.46 304.955 595.517 305.348 595.63C305.742 595.737 306.105 595.93 306.438 596.21C306.778 596.483 307.055 596.867 307.268 597.36C307.482 597.847 307.588 598.473 307.588 599.24V606H305.728V599.42C305.728 598.793 305.628 598.31 305.428 597.97C305.228 597.623 304.965 597.38 304.638 597.24C304.318 597.1 303.975 597.03 303.608 597.03C303.288 597.03 302.948 597.093 302.588 597.22C302.228 597.347 301.922 597.56 301.668 597.86C301.415 598.16 301.288 598.57 301.288 599.09V606H299.448V598.88C299.448 598.473 299.338 598.133 299.118 597.86C298.905 597.587 298.635 597.38 298.308 597.24C297.988 597.1 297.668 597.03 297.348 597.03C296.995 597.03 296.638 597.1 296.278 597.24C295.925 597.38 295.625 597.603 295.378 597.91C295.138 598.21 295.018 598.603 295.018 599.09V606H293.178ZM314.593 606.2C313.64 606.2 312.806 605.997 312.093 605.59C311.38 605.177 310.826 604.573 310.433 603.78C310.04 602.987 309.843 602.017 309.843 600.87C309.843 599.79 310.026 598.843 310.393 598.03C310.76 597.217 311.296 596.587 312.003 596.14C312.716 595.687 313.58 595.46 314.593 595.46C315.546 595.46 316.373 595.67 317.073 596.09C317.78 596.503 318.326 597.113 318.713 597.92C319.1 598.727 319.293 599.71 319.293 600.87C319.293 601.923 319.113 602.85 318.753 603.65C318.4 604.45 317.873 605.077 317.173 605.53C316.48 605.977 315.62 606.2 314.593 606.2ZM314.593 604.74C315.213 604.74 315.736 604.583 316.163 604.27C316.59 603.957 316.913 603.507 317.133 602.92C317.353 602.333 317.463 601.637 317.463 600.83C317.463 600.09 317.366 599.427 317.173 598.84C316.98 598.247 316.67 597.777 316.243 597.43C315.823 597.083 315.273 596.91 314.593 596.91C313.966 596.91 313.436 597.067 313.003 597.38C312.57 597.687 312.24 598.133 312.013 598.72C311.793 599.307 311.683 600.01 311.683 600.83C311.683 601.557 311.783 602.217 311.983 602.81C312.183 603.403 312.496 603.873 312.923 604.22C313.35 604.567 313.906 604.74 314.593 604.74ZM325.338 606.2C324.798 606.193 324.288 606.117 323.808 605.97C323.334 605.817 322.914 605.593 322.548 605.3C322.181 605.007 321.891 604.643 321.678 604.21C321.471 603.77 321.368 603.26 321.368 602.68V595.66H323.218V602.49C323.218 603.163 323.424 603.71 323.838 604.13C324.258 604.55 324.888 604.76 325.728 604.76C326.488 604.76 327.098 604.563 327.558 604.17C328.024 603.77 328.258 603.177 328.258 602.39V595.66H330.098V606H328.628L328.438 604.02C328.311 604.54 328.094 604.96 327.788 605.28C327.488 605.6 327.124 605.837 326.698 605.99C326.278 606.137 325.824 606.207 325.338 606.2ZM333.12 606V595.66H334.91V597.16C335.077 596.873 335.307 596.603 335.6 596.35C335.9 596.097 336.26 595.893 336.68 595.74C337.107 595.587 337.597 595.51 338.15 595.51C338.803 595.51 339.403 595.64 339.95 595.9C340.503 596.16 340.943 596.567 341.27 597.12C341.603 597.667 341.77 598.373 341.77 599.24V606H339.92V599.42C339.92 598.613 339.707 598.017 339.28 597.63C338.86 597.237 338.313 597.04 337.64 597.04C337.173 597.04 336.737 597.117 336.33 597.27C335.923 597.417 335.593 597.643 335.34 597.95C335.087 598.25 334.96 598.63 334.96 599.09V606H333.12ZM349.428 597.01H347.098V603.44C347.098 603.807 347.134 604.077 347.208 604.25C347.288 604.417 347.418 604.523 347.598 604.57C347.784 604.617 348.038 604.64 348.358 604.64H349.488V605.88C349.361 605.927 349.168 605.967 348.908 606C348.654 606.033 348.338 606.05 347.958 606.05C347.244 606.05 346.691 605.953 346.298 605.76C345.904 605.567 345.628 605.28 345.468 604.9C345.314 604.52 345.238 604.053 345.238 603.5V597.01H343.558V595.66H345.288L345.738 592.65H347.098V595.65H349.428V597.01ZM360.17 606.2C358.83 606.2 357.767 605.74 356.98 604.82C356.193 603.9 355.8 602.557 355.8 600.79C355.8 599.717 355.957 598.78 356.27 597.98C356.59 597.18 357.063 596.56 357.69 596.12C358.317 595.68 359.097 595.46 360.03 595.46C360.523 595.46 360.96 595.523 361.34 595.65C361.727 595.777 362.06 595.937 362.34 596.13C362.62 596.323 362.847 596.523 363.02 596.73C363.2 596.937 363.333 597.127 363.42 597.3V591.14H365.28V606H363.87L363.67 603.88C363.603 604.08 363.497 604.313 363.35 604.58C363.203 604.84 362.997 605.097 362.73 605.35C362.463 605.597 362.12 605.8 361.7 605.96C361.287 606.12 360.777 606.2 360.17 606.2ZM360.5 604.78C361.547 604.78 362.293 604.463 362.74 603.83C363.193 603.19 363.42 602.147 363.42 600.7C363.413 599.893 363.31 599.207 363.11 598.64C362.917 598.073 362.61 597.643 362.19 597.35C361.777 597.05 361.227 596.9 360.54 596.9C359.687 596.9 358.993 597.203 358.46 597.81C357.927 598.417 357.66 599.38 357.66 600.7C357.66 601.993 357.9 602.997 358.38 603.71C358.867 604.423 359.573 604.78 360.5 604.78ZM369.655 601.26C369.655 601.913 369.761 602.507 369.975 603.04C370.195 603.567 370.525 603.987 370.965 604.3C371.411 604.613 371.968 604.77 372.635 604.77C373.295 604.77 373.861 604.617 374.335 604.31C374.815 604.003 375.121 603.56 375.255 602.98H377.005C376.878 603.68 376.598 604.27 376.165 604.75C375.731 605.23 375.208 605.593 374.595 605.84C373.981 606.08 373.341 606.2 372.675 606.2C371.708 606.2 370.858 605.99 370.125 605.57C369.391 605.15 368.818 604.547 368.405 603.76C367.991 602.973 367.785 602.03 367.785 600.93C367.785 599.843 367.971 598.89 368.345 598.07C368.718 597.25 369.258 596.61 369.965 596.15C370.678 595.69 371.535 595.46 372.535 595.46C373.508 595.46 374.331 595.67 375.005 596.09C375.678 596.51 376.188 597.103 376.535 597.87C376.888 598.63 377.065 599.533 377.065 600.58V601.26H369.655ZM369.665 600.01H375.285C375.285 599.417 375.185 598.883 374.985 598.41C374.785 597.93 374.478 597.553 374.065 597.28C373.658 597 373.145 596.86 372.525 596.86C371.878 596.86 371.341 597.017 370.915 597.33C370.495 597.637 370.178 598.033 369.965 598.52C369.758 599 369.658 599.497 369.665 600.01ZM383.334 606.2C381.994 606.2 380.931 605.74 380.144 604.82C379.358 603.9 378.964 602.557 378.964 600.79C378.964 599.717 379.121 598.78 379.434 597.98C379.754 597.18 380.228 596.56 380.854 596.12C381.481 595.68 382.261 595.46 383.194 595.46C383.688 595.46 384.124 595.523 384.504 595.65C384.891 595.777 385.224 595.937 385.504 596.13C385.784 596.323 386.011 596.523 386.184 596.73C386.364 596.937 386.498 597.127 386.584 597.3V591.14H388.444V606H387.034L386.834 603.88C386.768 604.08 386.661 604.313 386.514 604.58C386.368 604.84 386.161 605.097 385.894 605.35C385.628 605.597 385.284 605.8 384.864 605.96C384.451 606.12 383.941 606.2 383.334 606.2ZM383.664 604.78C384.711 604.78 385.458 604.463 385.904 603.83C386.358 603.19 386.584 602.147 386.584 600.7C386.578 599.893 386.474 599.207 386.274 598.64C386.081 598.073 385.774 597.643 385.354 597.35C384.941 597.05 384.391 596.9 383.704 596.9C382.851 596.9 382.158 597.203 381.624 597.81C381.091 598.417 380.824 599.38 380.824 600.7C380.824 601.993 381.064 602.997 381.544 603.71C382.031 604.423 382.738 604.78 383.664 604.78ZM395.299 606.2C394.759 606.193 394.249 606.117 393.769 605.97C393.295 605.817 392.875 605.593 392.509 605.3C392.142 605.007 391.852 604.643 391.639 604.21C391.432 603.77 391.329 603.26 391.329 602.68V595.66H393.179V602.49C393.179 603.163 393.385 603.71 393.799 604.13C394.219 604.55 394.849 604.76 395.689 604.76C396.449 604.76 397.059 604.563 397.519 604.17C397.985 603.77 398.219 603.177 398.219 602.39V595.66H400.059V606H398.589L398.399 604.02C398.272 604.54 398.055 604.96 397.749 605.28C397.449 605.6 397.085 605.837 396.659 605.99C396.239 606.137 395.785 606.207 395.299 606.2ZM407.064 595.46C407.804 595.46 408.471 595.603 409.064 595.89C409.657 596.17 410.141 596.57 410.514 597.09C410.894 597.61 411.131 598.223 411.224 598.93H409.584C409.524 598.57 409.384 598.24 409.164 597.94C408.951 597.64 408.667 597.4 408.314 597.22C407.961 597.04 407.547 596.95 407.074 596.95C406.187 596.95 405.467 597.27 404.914 597.91C404.361 598.55 404.084 599.53 404.084 600.85C404.084 602.043 404.337 603 404.844 603.72C405.357 604.433 406.111 604.79 407.104 604.79C407.577 604.79 407.987 604.7 408.334 604.52C408.687 604.333 408.971 604.09 409.184 603.79C409.397 603.483 409.534 603.157 409.594 602.81H411.204C411.117 603.503 410.884 604.103 410.504 604.61C410.124 605.117 409.637 605.51 409.044 605.79C408.457 606.063 407.797 606.2 407.064 606.2C406.137 606.2 405.314 605.997 404.594 605.59C403.881 605.183 403.321 604.583 402.914 603.79C402.507 602.997 402.304 602.023 402.304 600.87C402.304 599.79 402.487 598.847 402.854 598.04C403.227 597.227 403.767 596.593 404.474 596.14C405.187 595.687 406.051 595.46 407.064 595.46ZM418.647 597.01H416.317V603.44C416.317 603.807 416.353 604.077 416.427 604.25C416.507 604.417 416.637 604.523 416.817 604.57C417.003 604.617 417.257 604.64 417.577 604.64H418.707V605.88C418.58 605.927 418.387 605.967 418.127 606C417.873 606.033 417.557 606.05 417.177 606.05C416.463 606.05 415.91 605.953 415.517 605.76C415.123 605.567 414.847 605.28 414.687 604.9C414.533 604.52 414.457 604.053 414.457 603.5V597.01H412.777V595.66H414.507L414.957 592.65H416.317V595.65H418.647V597.01ZM422.35 601.26C422.35 601.913 422.457 602.507 422.67 603.04C422.89 603.567 423.22 603.987 423.66 604.3C424.107 604.613 424.663 604.77 425.33 604.77C425.99 604.77 426.557 604.617 427.03 604.31C427.51 604.003 427.817 603.56 427.95 602.98H429.7C429.573 603.68 429.293 604.27 428.86 604.75C428.427 605.23 427.903 605.593 427.29 605.84C426.677 606.08 426.037 606.2 425.37 606.2C424.403 606.2 423.553 605.99 422.82 605.57C422.087 605.15 421.513 604.547 421.1 603.76C420.687 602.973 420.48 602.03 420.48 600.93C420.48 599.843 420.667 598.89 421.04 598.07C421.413 597.25 421.953 596.61 422.66 596.15C423.373 595.69 424.23 595.46 425.23 595.46C426.203 595.46 427.027 595.67 427.7 596.09C428.373 596.51 428.883 597.103 429.23 597.87C429.583 598.63 429.76 599.533 429.76 600.58V601.26H422.35ZM422.36 600.01H427.98C427.98 599.417 427.88 598.883 427.68 598.41C427.48 597.93 427.173 597.553 426.76 597.28C426.353 597 425.84 596.86 425.22 596.86C424.573 596.86 424.037 597.017 423.61 597.33C423.19 597.637 422.873 598.033 422.66 598.52C422.453 599 422.353 599.497 422.36 600.01ZM436.03 606.2C434.69 606.2 433.626 605.74 432.84 604.82C432.053 603.9 431.66 602.557 431.66 600.79C431.66 599.717 431.816 598.78 432.13 597.98C432.45 597.18 432.923 596.56 433.55 596.12C434.176 595.68 434.956 595.46 435.89 595.46C436.383 595.46 436.82 595.523 437.2 595.65C437.586 595.777 437.92 595.937 438.2 596.13C438.48 596.323 438.706 596.523 438.88 596.73C439.06 596.937 439.193 597.127 439.28 597.3V591.14H441.14V606H439.73L439.53 603.88C439.463 604.08 439.356 604.313 439.21 604.58C439.063 604.84 438.856 605.097 438.59 605.35C438.323 605.597 437.98 605.8 437.56 605.96C437.146 606.12 436.636 606.2 436.03 606.2ZM436.36 604.78C437.406 604.78 438.153 604.463 438.6 603.83C439.053 603.19 439.28 602.147 439.28 600.7C439.273 599.893 439.17 599.207 438.97 598.64C438.776 598.073 438.47 597.643 438.05 597.35C437.636 597.05 437.086 596.9 436.4 596.9C435.546 596.9 434.853 597.203 434.32 597.81C433.786 598.417 433.52 599.38 433.52 600.7C433.52 601.993 433.76 602.997 434.24 603.71C434.726 604.423 435.433 604.78 436.36 604.78ZM454.643 595.66V597.01H452.133V606H450.273V597.01H448.093V595.66H450.273V594.06C450.273 593.24 450.483 592.617 450.903 592.19C451.323 591.757 451.95 591.54 452.783 591.54H454.733L454.743 592.85H453.193C452.773 592.85 452.487 592.963 452.333 593.19C452.18 593.417 452.103 593.76 452.103 594.22V595.66H454.643ZM456.928 606V595.66H458.688V597.65C458.862 597.157 459.105 596.75 459.418 596.43C459.732 596.103 460.088 595.86 460.488 595.7C460.895 595.54 461.315 595.46 461.748 595.46C461.902 595.46 462.052 595.47 462.198 595.49C462.345 595.51 462.458 595.543 462.538 595.59V597.38C462.438 597.333 462.308 597.303 462.148 597.29C461.995 597.27 461.865 597.26 461.758 597.26C461.345 597.233 460.958 597.26 460.598 597.34C460.238 597.413 459.922 597.543 459.648 597.73C459.375 597.917 459.158 598.163 458.998 598.47C458.845 598.77 458.768 599.137 458.768 599.57V606H456.928ZM468.558 606.2C467.605 606.2 466.771 605.997 466.058 605.59C465.345 605.177 464.791 604.573 464.398 603.78C464.005 602.987 463.808 602.017 463.808 600.87C463.808 599.79 463.991 598.843 464.358 598.03C464.725 597.217 465.261 596.587 465.968 596.14C466.681 595.687 467.545 595.46 468.558 595.46C469.511 595.46 470.338 595.67 471.038 596.09C471.745 596.503 472.291 597.113 472.678 597.92C473.065 598.727 473.258 599.71 473.258 600.87C473.258 601.923 473.078 602.85 472.718 603.65C472.365 604.45 471.838 605.077 471.138 605.53C470.445 605.977 469.585 606.2 468.558 606.2ZM468.558 604.74C469.178 604.74 469.701 604.583 470.128 604.27C470.555 603.957 470.878 603.507 471.098 602.92C471.318 602.333 471.428 601.637 471.428 600.83C471.428 600.09 471.331 599.427 471.138 598.84C470.945 598.247 470.635 597.777 470.208 597.43C469.788 597.083 469.238 596.91 468.558 596.91C467.931 596.91 467.401 597.067 466.968 597.38C466.535 597.687 466.205 598.133 465.978 598.72C465.758 599.307 465.648 600.01 465.648 600.83C465.648 601.557 465.748 602.217 465.948 602.81C466.148 603.403 466.461 603.873 466.888 604.22C467.315 604.567 467.871 604.74 468.558 604.74ZM475.678 606V595.66H477.458V597.16C477.745 596.707 478.138 596.31 478.638 595.97C479.138 595.63 479.788 595.46 480.588 595.46C480.962 595.46 481.342 595.523 481.728 595.65C482.122 595.777 482.482 595.967 482.808 596.22C483.135 596.473 483.388 596.783 483.568 597.15C483.888 596.643 484.322 596.237 484.868 595.93C485.415 595.617 486.032 595.46 486.718 595.46C487.078 595.46 487.455 595.517 487.848 595.63C488.242 595.737 488.605 595.93 488.938 596.21C489.278 596.483 489.555 596.867 489.768 597.36C489.982 597.847 490.088 598.473 490.088 599.24V606H488.228V599.42C488.228 598.793 488.128 598.31 487.928 597.97C487.728 597.623 487.465 597.38 487.138 597.24C486.818 597.1 486.475 597.03 486.108 597.03C485.788 597.03 485.448 597.093 485.088 597.22C484.728 597.347 484.422 597.56 484.168 597.86C483.915 598.16 483.788 598.57 483.788 599.09V606H481.948V598.88C481.948 598.473 481.838 598.133 481.618 597.86C481.405 597.587 481.135 597.38 480.808 597.24C480.488 597.1 480.168 597.03 479.848 597.03C479.495 597.03 479.138 597.1 478.778 597.24C478.425 597.38 478.125 597.603 477.878 597.91C477.638 598.21 477.518 598.603 477.518 599.09V606H475.678ZM498.476 609.3C497.869 609.3 497.452 609.257 497.226 609.17C496.999 609.083 496.886 609.04 496.886 609.04V607.84L497.936 607.86C498.322 607.873 498.642 607.847 498.896 607.78C499.149 607.713 499.352 607.623 499.506 607.51C499.659 607.397 499.776 607.27 499.856 607.13C499.942 606.99 500.012 606.857 500.066 606.73L500.426 605.75L496.386 595.66H498.256L501.306 603.64L504.336 595.66H506.146L501.786 606.78C501.519 607.433 501.219 607.943 500.886 608.31C500.559 608.677 500.192 608.933 499.786 609.08C499.386 609.227 498.949 609.3 498.476 609.3ZM511.859 606.2C510.905 606.2 510.072 605.997 509.359 605.59C508.645 605.177 508.092 604.573 507.699 603.78C507.305 602.987 507.109 602.017 507.109 600.87C507.109 599.79 507.292 598.843 507.659 598.03C508.025 597.217 508.562 596.587 509.269 596.14C509.982 595.687 510.845 595.46 511.859 595.46C512.812 595.46 513.639 595.67 514.339 596.09C515.045 596.503 515.592 597.113 515.979 597.92C516.365 598.727 516.559 599.71 516.559 600.87C516.559 601.923 516.379 602.85 516.019 603.65C515.665 604.45 515.139 605.077 514.439 605.53C513.745 605.977 512.885 606.2 511.859 606.2ZM511.859 604.74C512.479 604.74 513.002 604.583 513.429 604.27C513.855 603.957 514.179 603.507 514.399 602.92C514.619 602.333 514.729 601.637 514.729 600.83C514.729 600.09 514.632 599.427 514.439 598.84C514.245 598.247 513.935 597.777 513.509 597.43C513.089 597.083 512.539 596.91 511.859 596.91C511.232 596.91 510.702 597.067 510.269 597.38C509.835 597.687 509.505 598.133 509.279 598.72C509.059 599.307 508.949 600.01 508.949 600.83C508.949 601.557 509.049 602.217 509.249 602.81C509.449 603.403 509.762 603.873 510.189 604.22C510.615 604.567 511.172 604.74 511.859 604.74ZM522.603 606.2C522.063 606.193 521.553 606.117 521.073 605.97C520.6 605.817 520.18 605.593 519.813 605.3C519.447 605.007 519.157 604.643 518.943 604.21C518.737 603.77 518.633 603.26 518.633 602.68V595.66H520.483V602.49C520.483 603.163 520.69 603.71 521.103 604.13C521.523 604.55 522.153 604.76 522.993 604.76C523.753 604.76 524.363 604.563 524.823 604.17C525.29 603.77 525.523 603.177 525.523 602.39V595.66H527.363V606H525.893L525.703 604.02C525.577 604.54 525.36 604.96 525.053 605.28C524.753 605.6 524.39 605.837 523.963 605.99C523.543 606.137 523.09 606.207 522.603 606.2ZM530.385 606V595.66H532.145V597.65C532.319 597.157 532.562 596.75 532.875 596.43C533.189 596.103 533.545 595.86 533.945 595.7C534.352 595.54 534.772 595.46 535.205 595.46C535.359 595.46 535.509 595.47 535.655 595.49C535.802 595.51 535.915 595.543 535.995 595.59V597.38C535.895 597.333 535.765 597.303 535.605 597.29C535.452 597.27 535.322 597.26 535.215 597.26C534.802 597.233 534.415 597.26 534.055 597.34C533.695 597.413 533.379 597.543 533.105 597.73C532.832 597.917 532.615 598.163 532.455 598.47C532.302 598.77 532.225 599.137 532.225 599.57V606H530.385ZM236.39 634.2C235.723 634.2 235.133 634.083 234.62 633.85C234.107 633.61 233.703 633.267 233.41 632.82C233.123 632.373 232.98 631.833 232.98 631.2C232.98 630.053 233.38 629.2 234.18 628.64C234.98 628.08 236.263 627.78 238.03 627.74L239.88 627.69V626.88C239.88 626.247 239.69 625.747 239.31 625.38C238.93 625.007 238.34 624.82 237.54 624.82C236.947 624.827 236.423 624.967 235.97 625.24C235.523 625.513 235.233 625.96 235.1 626.58H233.47C233.51 625.907 233.7 625.34 234.04 624.88C234.38 624.413 234.853 624.06 235.46 623.82C236.073 623.58 236.797 623.46 237.63 623.46C238.53 623.46 239.277 623.587 239.87 623.84C240.47 624.093 240.917 624.467 241.21 624.96C241.51 625.453 241.66 626.06 241.66 626.78V634H240.08L239.95 632.06C239.55 632.867 239.04 633.427 238.42 633.74C237.807 634.047 237.13 634.2 236.39 634.2ZM236.95 632.87C237.297 632.87 237.64 632.807 237.98 632.68C238.327 632.553 238.643 632.383 238.93 632.17C239.217 631.95 239.443 631.707 239.61 631.44C239.783 631.167 239.873 630.887 239.88 630.6V628.83L238.34 628.86C237.553 628.873 236.893 628.953 236.36 629.1C235.833 629.247 235.437 629.477 235.17 629.79C234.91 630.103 234.78 630.513 234.78 631.02C234.78 631.6 234.98 632.053 235.38 632.38C235.787 632.707 236.31 632.87 236.95 632.87ZM248.939 623.46C249.679 623.46 250.346 623.603 250.939 623.89C251.532 624.17 252.016 624.57 252.389 625.09C252.769 625.61 253.006 626.223 253.099 626.93H251.459C251.399 626.57 251.259 626.24 251.039 625.94C250.826 625.64 250.542 625.4 250.189 625.22C249.836 625.04 249.422 624.95 248.949 624.95C248.062 624.95 247.342 625.27 246.789 625.91C246.236 626.55 245.959 627.53 245.959 628.85C245.959 630.043 246.212 631 246.719 631.72C247.232 632.433 247.986 632.79 248.979 632.79C249.452 632.79 249.862 632.7 250.209 632.52C250.562 632.333 250.846 632.09 251.059 631.79C251.272 631.483 251.409 631.157 251.469 630.81H253.079C252.992 631.503 252.759 632.103 252.379 632.61C251.999 633.117 251.512 633.51 250.919 633.79C250.332 634.063 249.672 634.2 248.939 634.2C248.012 634.2 247.189 633.997 246.469 633.59C245.756 633.183 245.196 632.583 244.789 631.79C244.382 630.997 244.179 630.023 244.179 628.87C244.179 627.79 244.362 626.847 244.729 626.04C245.102 625.227 245.642 624.593 246.349 624.14C247.062 623.687 247.926 623.46 248.939 623.46ZM259.72 623.46C260.46 623.46 261.127 623.603 261.72 623.89C262.314 624.17 262.797 624.57 263.17 625.09C263.55 625.61 263.787 626.223 263.88 626.93H262.24C262.18 626.57 262.04 626.24 261.82 625.94C261.607 625.64 261.324 625.4 260.97 625.22C260.617 625.04 260.204 624.95 259.73 624.95C258.844 624.95 258.124 625.27 257.57 625.91C257.017 626.55 256.74 627.53 256.74 628.85C256.74 630.043 256.994 631 257.5 631.72C258.014 632.433 258.767 632.79 259.76 632.79C260.234 632.79 260.644 632.7 260.99 632.52C261.344 632.333 261.627 632.09 261.84 631.79C262.054 631.483 262.19 631.157 262.25 630.81H263.86C263.774 631.503 263.54 632.103 263.16 632.61C262.78 633.117 262.294 633.51 261.7 633.79C261.114 634.063 260.454 634.2 259.72 634.2C258.794 634.2 257.97 633.997 257.25 633.59C256.537 633.183 255.977 632.583 255.57 631.79C255.164 630.997 254.96 630.023 254.96 628.87C254.96 627.79 255.144 626.847 255.51 626.04C255.884 625.227 256.424 624.593 257.13 624.14C257.844 623.687 258.707 623.46 259.72 623.46ZM270.492 634.2C269.538 634.2 268.705 633.997 267.992 633.59C267.278 633.177 266.725 632.573 266.332 631.78C265.938 630.987 265.742 630.017 265.742 628.87C265.742 627.79 265.925 626.843 266.292 626.03C266.658 625.217 267.195 624.587 267.902 624.14C268.615 623.687 269.478 623.46 270.492 623.46C271.445 623.46 272.272 623.67 272.972 624.09C273.678 624.503 274.225 625.113 274.612 625.92C274.998 626.727 275.192 627.71 275.192 628.87C275.192 629.923 275.012 630.85 274.652 631.65C274.298 632.45 273.772 633.077 273.072 633.53C272.378 633.977 271.518 634.2 270.492 634.2ZM270.492 632.74C271.112 632.74 271.635 632.583 272.062 632.27C272.488 631.957 272.812 631.507 273.032 630.92C273.252 630.333 273.362 629.637 273.362 628.83C273.362 628.09 273.265 627.427 273.072 626.84C272.878 626.247 272.568 625.777 272.142 625.43C271.722 625.083 271.172 624.91 270.492 624.91C269.865 624.91 269.335 625.067 268.902 625.38C268.468 625.687 268.138 626.133 267.912 626.72C267.692 627.307 267.582 628.01 267.582 628.83C267.582 629.557 267.682 630.217 267.882 630.81C268.082 631.403 268.395 631.873 268.822 632.22C269.248 632.567 269.805 632.74 270.492 632.74ZM281.236 634.2C280.696 634.193 280.186 634.117 279.706 633.97C279.233 633.817 278.813 633.593 278.446 633.3C278.08 633.007 277.79 632.643 277.576 632.21C277.37 631.77 277.266 631.26 277.266 630.68V623.66H279.116V630.49C279.116 631.163 279.323 631.71 279.736 632.13C280.156 632.55 280.786 632.76 281.626 632.76C282.386 632.76 282.996 632.563 283.456 632.17C283.923 631.77 284.156 631.177 284.156 630.39V623.66H285.996V634H284.526L284.336 632.02C284.21 632.54 283.993 632.96 283.686 633.28C283.386 633.6 283.023 633.837 282.596 633.99C282.176 634.137 281.723 634.207 281.236 634.2ZM289.018 634V623.66H290.808V625.16C290.975 624.873 291.205 624.603 291.498 624.35C291.798 624.097 292.158 623.893 292.578 623.74C293.005 623.587 293.495 623.51 294.048 623.51C294.702 623.51 295.302 623.64 295.848 623.9C296.402 624.16 296.842 624.567 297.168 625.12C297.502 625.667 297.668 626.373 297.668 627.24V634H295.818V627.42C295.818 626.613 295.605 626.017 295.178 625.63C294.758 625.237 294.212 625.04 293.538 625.04C293.072 625.04 292.635 625.117 292.228 625.27C291.822 625.417 291.492 625.643 291.238 625.95C290.985 626.25 290.858 626.63 290.858 627.09V634H289.018ZM305.326 625.01H302.996V631.44C302.996 631.807 303.033 632.077 303.106 632.25C303.186 632.417 303.316 632.523 303.496 632.57C303.683 632.617 303.936 632.64 304.256 632.64H305.386V633.88C305.26 633.927 305.066 633.967 304.806 634C304.553 634.033 304.236 634.05 303.856 634.05C303.143 634.05 302.59 633.953 302.196 633.76C301.803 633.567 301.526 633.28 301.366 632.9C301.213 632.52 301.136 632.053 301.136 631.5V625.01H299.456V623.66H301.186L301.636 620.65H302.996V623.65H305.326V625.01ZM314.593 623.66V634H312.803V623.66H314.593ZM314.633 619.55V621.47H312.743V619.55H314.633ZM321.516 634.2C320.796 634.2 320.126 634.09 319.506 633.87C318.893 633.643 318.383 633.293 317.976 632.82C317.57 632.34 317.313 631.73 317.206 630.99H318.886C318.98 631.397 319.146 631.737 319.386 632.01C319.633 632.277 319.94 632.48 320.306 632.62C320.673 632.753 321.073 632.82 321.506 632.82C322.2 632.82 322.76 632.69 323.186 632.43C323.613 632.17 323.826 631.77 323.826 631.23C323.826 630.85 323.713 630.547 323.486 630.32C323.266 630.087 322.923 629.917 322.456 629.81L320.316 629.28C319.483 629.08 318.816 628.767 318.316 628.34C317.816 627.913 317.566 627.317 317.566 626.55C317.56 625.943 317.703 625.41 317.996 624.95C318.29 624.49 318.73 624.127 319.316 623.86C319.903 623.593 320.633 623.46 321.506 623.46C322.626 623.46 323.53 623.713 324.216 624.22C324.91 624.72 325.27 625.457 325.296 626.43H323.666C323.6 625.937 323.376 625.547 322.996 625.26C322.623 624.967 322.12 624.82 321.486 624.82C320.826 624.82 320.29 624.953 319.876 625.22C319.463 625.48 319.256 625.887 319.256 626.44C319.256 626.807 319.403 627.097 319.696 627.31C319.99 627.517 320.423 627.69 320.996 627.83L323.066 628.35C323.546 628.477 323.94 628.643 324.246 628.85C324.56 629.057 324.806 629.287 324.986 629.54C325.173 629.793 325.303 630.06 325.376 630.34C325.456 630.613 325.496 630.877 325.496 631.13C325.496 631.763 325.336 632.31 325.016 632.77C324.703 633.223 324.25 633.577 323.656 633.83C323.07 634.077 322.356 634.2 321.516 634.2ZM343.979 628.49C343.979 629.657 343.789 630.67 343.409 631.53C343.029 632.383 342.412 633.043 341.559 633.51C340.712 633.97 339.589 634.2 338.189 634.2C336.782 634.2 335.656 633.967 334.809 633.5C333.962 633.027 333.349 632.357 332.969 631.49C332.596 630.623 332.409 629.59 332.409 628.39V619.54H335.379V628.61C335.379 629.69 335.639 630.48 336.159 630.98C336.679 631.473 337.356 631.72 338.189 631.72C338.742 631.72 339.232 631.613 339.659 631.4C340.086 631.18 340.419 630.843 340.659 630.39C340.906 629.93 341.029 629.337 341.029 628.61V619.54H343.979V628.49ZM352.312 634.2C351.598 634.2 350.898 634.11 350.212 633.93C349.525 633.75 348.898 633.48 348.332 633.12C347.765 632.76 347.295 632.31 346.922 631.77C346.555 631.23 346.335 630.597 346.262 629.87H349.252C349.352 630.31 349.542 630.68 349.822 630.98C350.102 631.28 350.455 631.51 350.882 631.67C351.308 631.83 351.782 631.91 352.302 631.91C352.835 631.91 353.322 631.843 353.762 631.71C354.202 631.577 354.555 631.377 354.822 631.11C355.088 630.837 355.222 630.497 355.222 630.09C355.222 629.723 355.112 629.423 354.892 629.19C354.678 628.957 354.388 628.767 354.022 628.62C353.655 628.473 353.238 628.353 352.772 628.26L350.272 627.75C349.178 627.543 348.312 627.11 347.672 626.45C347.032 625.783 346.702 624.897 346.682 623.79C346.675 622.883 346.915 622.1 347.402 621.44C347.895 620.773 348.562 620.26 349.402 619.9C350.248 619.54 351.195 619.36 352.242 619.36C353.488 619.36 354.535 619.557 355.382 619.95C356.235 620.337 356.882 620.863 357.322 621.53C357.768 622.19 357.998 622.927 358.012 623.74H355.082C355.028 623.233 354.875 622.83 354.622 622.53C354.368 622.23 354.042 622.013 353.642 621.88C353.248 621.747 352.798 621.68 352.292 621.68C351.905 621.68 351.552 621.723 351.232 621.81C350.918 621.897 350.652 622.02 350.432 622.18C350.212 622.333 350.042 622.517 349.922 622.73C349.802 622.943 349.742 623.183 349.742 623.45C349.742 623.87 349.882 624.21 350.162 624.47C350.442 624.73 350.965 624.943 351.732 625.11L354.212 625.62C355.098 625.793 355.802 626.05 356.322 626.39C356.848 626.73 357.242 627.113 357.502 627.54C357.768 627.967 357.942 628.403 358.022 628.85C358.108 629.29 358.152 629.697 358.152 630.07C358.152 630.85 357.905 631.553 357.412 632.18C356.925 632.8 356.245 633.293 355.372 633.66C354.498 634.02 353.478 634.2 352.312 634.2ZM370.437 634.2C368.704 634.2 367.297 633.853 366.217 633.16C365.137 632.46 364.517 631.383 364.357 629.93L367.397 629.87C367.557 630.53 367.901 631.033 368.427 631.38C368.961 631.72 369.627 631.89 370.427 631.89C370.907 631.89 371.331 631.813 371.697 631.66C372.071 631.5 372.364 631.287 372.577 631.02C372.791 630.747 372.897 630.437 372.897 630.09C372.897 629.557 372.727 629.16 372.387 628.9C372.047 628.633 371.524 628.42 370.817 628.26L368.447 627.75C367.347 627.53 366.464 627.093 365.797 626.44C365.137 625.78 364.801 624.897 364.787 623.79C364.781 622.883 365.024 622.1 365.517 621.44C366.017 620.773 366.694 620.26 367.547 619.9C368.407 619.54 369.371 619.36 370.437 619.36C371.531 619.36 372.474 619.557 373.267 619.95C374.067 620.337 374.681 620.86 375.107 621.52C375.541 622.173 375.751 622.897 375.737 623.69L372.787 623.74C372.694 623.1 372.481 622.597 372.147 622.23C371.814 621.863 371.261 621.68 370.487 621.68C370.087 621.68 369.731 621.723 369.417 621.81C369.104 621.897 368.834 622.02 368.607 622.18C368.381 622.333 368.207 622.517 368.087 622.73C367.974 622.943 367.917 623.183 367.917 623.45C367.917 623.87 368.057 624.203 368.337 624.45C368.624 624.69 369.161 624.913 369.947 625.12L372.277 625.69C373.591 626.003 374.537 626.54 375.117 627.3C375.704 628.06 375.997 628.983 375.997 630.07C375.997 630.903 375.767 631.63 375.307 632.25C374.854 632.87 374.211 633.35 373.377 633.69C372.544 634.03 371.564 634.2 370.437 634.2ZM369.187 617.47H371.717V620.07H369.187V617.47ZM369.137 633.31H371.657V635.91H369.137V633.31ZM380.42 634V623.17H377.84V621.52C378.667 621.52 379.334 621.443 379.84 621.29C380.354 621.13 380.737 620.903 380.99 620.61C381.244 620.31 381.394 619.953 381.44 619.54H383.38V634H380.42ZM391.995 619.34C393.715 619.34 395.072 619.983 396.065 621.27C397.058 622.55 397.555 624.393 397.555 626.8C397.555 629.193 397.065 631.03 396.085 632.31C395.105 633.583 393.742 634.22 391.995 634.22C390.242 634.22 388.872 633.583 387.885 632.31C386.905 631.037 386.415 629.203 386.415 626.81C386.415 625.21 386.642 623.853 387.095 622.74C387.548 621.627 388.192 620.783 389.025 620.21C389.858 619.63 390.848 619.34 391.995 619.34ZM391.995 631.83C392.855 631.83 393.485 631.447 393.885 630.68C394.285 629.907 394.485 628.617 394.485 626.81C394.485 624.963 394.282 623.64 393.875 622.84C393.468 622.04 392.838 621.64 391.985 621.64C391.132 621.64 390.495 622.043 390.075 622.85C389.662 623.657 389.455 624.977 389.455 626.81C389.455 628.61 389.662 629.897 390.075 630.67C390.488 631.443 391.128 631.83 391.995 631.83ZM405.798 619.54H408.668V628.35H410.898V630.8H408.668V634H405.858L405.868 630.8H399.208V628.4L405.798 619.54ZM401.908 628.35H405.868V623.05L401.908 628.35ZM412.463 634V630.82H415.663V634H412.463ZM423.053 634.22C422.153 634.22 421.313 634.047 420.533 633.7C419.753 633.353 419.117 632.867 418.623 632.24C418.13 631.607 417.853 630.867 417.793 630.02H420.573C420.693 630.58 420.96 631.037 421.373 631.39C421.787 631.737 422.307 631.91 422.933 631.91C423.627 631.91 424.233 631.747 424.753 631.42C425.28 631.093 425.673 630.573 425.933 629.86C426.2 629.147 426.293 628.213 426.213 627.06C426.027 627.413 425.767 627.723 425.433 627.99C425.107 628.25 424.723 628.453 424.283 628.6C423.843 628.74 423.353 628.81 422.813 628.81C421.833 628.81 420.963 628.627 420.203 628.26C419.45 627.887 418.857 627.36 418.423 626.68C417.997 625.993 417.783 625.18 417.783 624.24C417.783 623.293 418.01 622.45 418.463 621.71C418.917 620.97 419.55 620.39 420.363 619.97C421.177 619.55 422.13 619.34 423.223 619.34C424.45 619.34 425.507 619.633 426.393 620.22C427.287 620.8 427.97 621.627 428.443 622.7C428.923 623.767 429.163 625.023 429.163 626.47C429.163 628.197 428.917 629.637 428.423 630.79C427.937 631.937 427.237 632.797 426.323 633.37C425.41 633.937 424.32 634.22 423.053 634.22ZM423.313 626.49C423.72 626.49 424.113 626.4 424.493 626.22C424.88 626.033 425.197 625.8 425.443 625.52C425.69 625.24 425.813 624.95 425.813 624.65C425.82 624.003 425.717 623.45 425.503 622.99C425.297 622.523 425.003 622.167 424.623 621.92C424.25 621.673 423.813 621.55 423.313 621.55C422.853 621.55 422.443 621.657 422.083 621.87C421.723 622.083 421.44 622.383 421.233 622.77C421.027 623.157 420.923 623.603 420.923 624.11C420.923 624.863 421.143 625.45 421.583 625.87C422.023 626.283 422.6 626.49 423.313 626.49ZM436.448 619.34C438.168 619.34 439.525 619.983 440.518 621.27C441.512 622.55 442.008 624.393 442.008 626.8C442.008 629.193 441.518 631.03 440.538 632.31C439.558 633.583 438.195 634.22 436.448 634.22C434.695 634.22 433.325 633.583 432.338 632.31C431.358 631.037 430.868 629.203 430.868 626.81C430.868 625.21 431.095 623.853 431.548 622.74C432.002 621.627 432.645 620.783 433.478 620.21C434.312 619.63 435.302 619.34 436.448 619.34ZM436.448 631.83C437.308 631.83 437.938 631.447 438.338 630.68C438.738 629.907 438.938 628.617 438.938 626.81C438.938 624.963 438.735 623.64 438.328 622.84C437.922 622.04 437.292 621.64 436.438 621.64C435.585 621.64 434.948 622.043 434.528 622.85C434.115 623.657 433.908 624.977 433.908 626.81C433.908 628.61 434.115 629.897 434.528 630.67C434.942 631.443 435.582 631.83 436.448 631.83ZM443.979 634V631.64H446.179V634H443.979Z" fill="#36536B"/>
</g>
</g>
<defs>
<filter id="filter0_d_10_7" x="1.13599" y="1.13916" width="835.299" height="1317.72" filterUnits="userSpaceOnUse" color-interpolation-filters="sRGB">
<feFlood flood-opacity="0" result="BackgroundImageFix"/>
<feColorMatrix in="SourceAlpha" type="matrix" values="0 0 0 0 0 0 0 0 0 0 0 0 0 0 0 0 0 0 127 0" result="hardAlpha"/>
<feOffset/>
<feGaussianBlur stdDeviation="40"/>
<feColorMatrix type="matrix" values="0 0 0 0 0.212302 0 0 0 0 0.32521 0 0 0 0 0.419299 0 0 0 0.300727 0"/>
<feBlend mode="normal" in2="BackgroundImageFix" result="effect1_dropShadow_10_7"/>
<feBlend mode="normal" in="SourceGraphic" in2="effect1_dropShadow_10_7" result="shape"/>
</filter>
<filter id="filter1_d_10_7" x="190" y="484" width="496" height="234" filterUnits="userSpaceOnUse" color-interpolation-filters="sRGB">
<feFlood flood-opacity="0" result="BackgroundImageFix"/>
<feColorMatrix in="SourceAlpha" type="matrix" values="0 0 0 0 0 0 0 0 0 0 0 0 0 0 0 0 0 0 127 0" result="hardAlpha"/>
<feMorphology radius="10" operator="erode" in="SourceAlpha" result="effect1_dropShadow_10_7"/>
<feOffset dx="10" dy="10"/>
<feGaussianBlur stdDeviation="12.5"/>
<feColorMatrix type="matrix" values="0 0 0 0 0.212302 0 0 0 0 0.32521 0 0 0 0 0.419299 0 0 0 0.25 0"/>
<feBlend mode="normal" in2="BackgroundImageFix" result="effect1_dropShadow_10_7"/>
<feBlend mode="normal" in="SourceGraphic" in2="effect1_dropShadow_10_7" result="shape"/>
</filter>
<linearGradient id="paint0_linear_10_7" x1="176.03" y1="160" x2="176.03" y2="184.648" gradientUnits="userSpaceOnUse">
<stop stop-color="#454545"/>
<stop offset="0.226279" stop-color="#999999"/>
<stop offset="1" stop-color="white"/>
</linearGradient>
<linearGradient id="paint1_linear_10_7" x1="676.207" y1="331.495" x2="657.285" y2="331.495" gradientUnits="userSpaceOnUse">
<stop stop-color="white" stop-opacity="0.01"/>
<stop offset="0.222178" stop-color="#BABABA"/>
<stop offset="0.54678" stop-color="white" stop-opacity="0.01"/>
<stop offset="1" stop-color="white" stop-opacity="0.01"/>
</linearGradient>
<linearGradient id="paint2_linear_10_7" x1="161.136" y1="330.973" x2="180.088" y2="330.973" gradientUnits="userSpaceOnUse">
<stop stop-color="white" stop-opacity="0.01"/>
<stop offset="0.222178" stop-color="#BABABA"/>
<stop offset="0.54678" stop-color="white" stop-opacity="0.01"/>
<stop offset="1" stop-color="white" stop-opacity="0.01"/>
</linearGradient>
<linearGradient id="paint3_linear_10_7" x1="187.814" y1="184.889" x2="187.814" y2="1107.65" gradientUnits="userSpaceOnUse">
<stop stop-color="#9CB6CD"/>
<stop offset="0.420564" stop-color="#9AB3CA"/>
<stop offset="0.716592" stop-color="#557496"/>
<stop offset="1" stop-color="#475178"/>
</linearGradient>
<clipPath id="clip0_10_7">
<rect width="233" height="465" fill="white" transform="matrix(2 0 0 2 186.148 184.889)"/>
</clipPath>
<clipPath id="clip1_10_7">
<rect width="218" height="87" fill="white" transform="matrix(2 0 0 2 200 494)"/>
</clipPath>
<clipPath id="clip2_10_7">
<rect width="187" height="11" fill="white" transform="matrix(2 0 0 2 232 526)"/>
</clipPath>
</defs>
</svg>
