<svg width="134" height="37" viewBox="0 0 134 37" fill="none" xmlns="http://www.w3.org/2000/svg">
<path fill-rule="evenodd" clip-rule="evenodd" d="M133.9 7.83274V4.53674H132.684V7.83274H133.9ZM49.7867 33.1767V25.3367H49.8507C50.4053 26.1474 51.1147 26.7607 51.9787 27.1767C52.8427 27.5927 53.7867 27.8007 54.8107 27.8007C56.0267 27.8007 57.088 27.5661 57.9947 27.0967C58.9013 26.6274 59.6587 25.9981 60.2667 25.2087C60.8747 24.4194 61.328 23.5127 61.6267 22.4887C61.9253 21.4647 62.0747 20.3981 62.0747 19.2887C62.0747 18.1154 61.9253 16.9901 61.6267 15.9127C61.328 14.8354 60.8693 13.8914 60.2507 13.0807C59.632 12.2701 58.8533 11.6194 57.9147 11.1287C56.976 10.6381 55.856 10.3927 54.5547 10.3927C53.5307 10.3927 52.592 10.5954 51.7387 11.0007C50.8853 11.4061 50.1813 12.0567 49.6267 12.9527H49.5627V10.8407H45.2427V33.1767H49.7867ZM53.5947 24.4087C52.8693 24.4087 52.2507 24.2594 51.7387 23.9607C51.2267 23.6621 50.816 23.2727 50.5067 22.7927C50.1973 22.3127 49.9733 21.7527 49.8347 21.1127C49.696 20.4727 49.6267 19.8221 49.6267 19.1607C49.6267 18.4781 49.6907 17.8167 49.8187 17.1767C49.9467 16.5367 50.1653 15.9714 50.4747 15.4807C50.784 14.9901 51.1893 14.5901 51.6907 14.2807C52.192 13.9714 52.816 13.8167 53.5627 13.8167C54.288 13.8167 54.9013 13.9714 55.4027 14.2807C55.904 14.5901 56.3147 14.9954 56.6347 15.4967C56.9547 15.9981 57.184 16.5687 57.3227 17.2087C57.4613 17.8487 57.5307 18.4994 57.5307 19.1607C57.5307 19.8221 57.4667 20.4727 57.3387 21.1127C57.2107 21.7527 56.992 22.3127 56.6827 22.7927C56.3733 23.2727 55.968 23.6621 55.4667 23.9607C54.9653 24.2594 54.3413 24.4087 53.5947 24.4087ZM72.4845 27.3527C71.5032 27.6514 70.5005 27.8007 69.4765 27.8007C68.6872 27.8007 67.9512 27.7047 67.2685 27.5127C66.5859 27.3207 65.9885 27.0221 65.4765 26.6167C64.9645 26.2114 64.5645 25.6994 64.2765 25.0807C63.9885 24.4621 63.8445 23.7261 63.8445 22.8727C63.8445 21.9341 64.0099 21.1607 64.3405 20.5527C64.6712 19.9447 65.0979 19.4594 65.6205 19.0967C66.1432 18.7341 66.7405 18.4621 67.4125 18.2807C68.0845 18.0994 68.7619 17.9554 69.4445 17.8487C70.1272 17.7421 70.7992 17.6567 71.4605 17.5927C72.1219 17.5287 72.7085 17.4327 73.2205 17.3047C73.7325 17.1767 74.1379 16.9901 74.4365 16.7447C74.7352 16.4994 74.8739 16.1421 74.8525 15.6727C74.8525 15.1821 74.7725 14.7927 74.6125 14.5047C74.4525 14.2167 74.2392 13.9927 73.9725 13.8327C73.7059 13.6727 73.3965 13.5661 73.0445 13.5127C72.6925 13.4594 72.3139 13.4327 71.9085 13.4327C71.0125 13.4327 70.3085 13.6247 69.7965 14.0087C69.2845 14.3927 68.9859 15.0327 68.9005 15.9287H64.3565C64.4205 14.8621 64.6872 13.9767 65.1565 13.2727C65.6259 12.5687 66.2232 12.0034 66.9485 11.5767C67.6739 11.1501 68.4899 10.8461 69.3965 10.6647C70.3032 10.4834 71.2152 10.3927 72.1325 10.3927C72.9645 10.3927 73.8072 10.4514 74.6605 10.5687C75.5139 10.6861 76.2925 10.9154 76.9965 11.2567C77.7005 11.5981 78.2765 12.0727 78.7245 12.6807C79.1725 13.2887 79.3965 14.0941 79.3965 15.0967V23.7047C79.3965 24.4514 79.4392 25.1661 79.5245 25.8487C79.6099 26.5314 79.7592 27.0434 79.9725 27.3847H75.3645C75.2792 27.1287 75.2099 26.8674 75.1565 26.6007C75.1032 26.3341 75.0659 26.0621 75.0445 25.7847C74.3192 26.5314 73.4659 27.0541 72.4845 27.3527ZM71.1725 24.7927C70.8099 24.7927 70.4579 24.7607 70.1165 24.6967C69.7752 24.6327 69.4765 24.5207 69.2205 24.3607C68.9645 24.2007 68.7619 23.9821 68.6125 23.7047C68.4632 23.4274 68.3885 23.0861 68.3885 22.6807C68.3885 22.2541 68.4632 21.9021 68.6125 21.6247C68.7619 21.3474 68.9592 21.1181 69.2045 20.9367C69.4499 20.7554 69.7379 20.6114 70.0685 20.5047C70.3992 20.3981 70.7352 20.3127 71.0765 20.2487C71.4392 20.1847 71.8019 20.1314 72.1645 20.0887C72.5272 20.0461 72.8739 19.9927 73.2045 19.9287C73.5352 19.8647 73.8445 19.7847 74.1325 19.6887C74.4205 19.5927 74.6605 19.4594 74.8525 19.2887V20.9847C74.8525 21.2407 74.8259 21.5821 74.7725 22.0087C74.7192 22.4354 74.5752 22.8567 74.3405 23.2727C74.1059 23.6887 73.7432 24.0461 73.2525 24.3447C72.7619 24.6434 72.0685 24.7927 71.1725 24.7927ZM88.7824 32.3127C87.9077 32.8887 86.6917 33.1767 85.1344 33.1767C84.665 33.1767 84.201 33.1607 83.7424 33.1287C83.2837 33.0967 82.8197 33.0594 82.3504 33.0167V29.2727C82.777 29.3154 83.2144 29.3581 83.6624 29.4007C84.1104 29.4434 84.5584 29.4541 85.0064 29.4327C85.6037 29.3687 86.0464 29.1341 86.3344 28.7287C86.6224 28.3234 86.7664 27.8754 86.7664 27.3847C86.7664 27.0221 86.7024 26.6807 86.5744 26.3607L80.7824 10.8407H85.6144L89.3584 22.1687H89.4224L93.0384 10.8407H97.7424L90.8304 29.4327C90.3397 30.7767 89.657 31.7367 88.7824 32.3127ZM103.832 27.7687C104.622 27.7687 105.347 27.6727 106.008 27.4807C106.67 27.2887 107.262 27.0221 107.784 26.6807C108.307 26.3394 108.75 25.9501 109.112 25.5127C109.475 25.0754 109.752 24.6114 109.944 24.1207H110.008V24.9847C110.008 25.3261 110.035 25.6407 110.088 25.9287C110.142 26.2167 110.243 26.4674 110.392 26.6807C110.542 26.8941 110.76 27.0647 111.048 27.1927C111.336 27.3207 111.726 27.3847 112.216 27.3847C112.558 27.3847 112.888 27.3421 113.208 27.2567V26.2327C112.824 26.2967 112.526 26.3287 112.312 26.3287C112.035 26.3287 111.822 26.2701 111.672 26.1527C111.523 26.0354 111.416 25.8807 111.352 25.6887C111.288 25.4967 111.251 25.2834 111.24 25.0487C111.23 24.8141 111.224 24.5794 111.224 24.3447V14.7767C111.224 13.5181 110.771 12.4994 109.864 11.7207C108.958 10.9421 107.512 10.5527 105.528 10.5527C103.544 10.5527 102.014 11.0061 100.936 11.9127C99.8589 12.8194 99.2775 14.1794 99.1922 15.9927H100.408C100.494 14.5207 100.99 13.4221 101.896 12.6967C102.803 11.9714 103.992 11.6087 105.464 11.6087C106.296 11.6087 107 11.6941 107.576 11.8647C108.152 12.0354 108.622 12.2701 108.984 12.5687C109.347 12.8674 109.614 13.2087 109.784 13.5927C109.955 13.9767 110.04 14.3927 110.04 14.8407C110.04 15.4167 110.008 15.8967 109.944 16.2807C109.88 16.6647 109.72 16.9794 109.464 17.2247C109.208 17.4701 108.83 17.6621 108.328 17.8007C107.827 17.9394 107.139 18.0407 106.264 18.1047L104.376 18.2647C103.715 18.3287 103.027 18.4354 102.312 18.5847C101.598 18.7341 100.947 18.9847 100.36 19.3367C99.7735 19.6887 99.2882 20.1687 98.9042 20.7767C98.5202 21.3847 98.3282 22.1687 98.3282 23.1287C98.3282 24.7074 98.8082 25.8754 99.7682 26.6327C100.728 27.3901 102.083 27.7687 103.832 27.7687ZM100.696 25.8327C101.464 26.4194 102.52 26.7127 103.864 26.7127C105.251 26.7127 106.35 26.4621 107.16 25.9607C107.971 25.4594 108.59 24.8834 109.016 24.2327C109.443 23.5821 109.715 22.9527 109.832 22.3447C109.95 21.7367 110.008 21.3261 110.008 21.1127V18.0407C109.71 18.4034 109.256 18.6487 108.648 18.7767C108.04 18.9047 107.363 19.0007 106.616 19.0647L104.568 19.2567C103.971 19.3207 103.374 19.4114 102.776 19.5287C102.179 19.6461 101.64 19.8434 101.16 20.1207C100.68 20.3981 100.291 20.7767 99.9922 21.2567C99.6935 21.7367 99.5442 22.3607 99.5442 23.1287C99.5442 24.3447 99.9282 25.2461 100.696 25.8327ZM116.354 33.2727V23.9607H116.418C116.909 25.3047 117.687 26.2754 118.754 26.8727C119.821 27.4701 121.037 27.7687 122.402 27.7687C123.661 27.7687 124.754 27.5554 125.682 27.1287C126.61 26.7021 127.378 26.1101 127.986 25.3527C128.594 24.5954 129.047 23.6941 129.346 22.6487C129.645 21.6034 129.794 20.4514 129.794 19.1927C129.794 18.0407 129.645 16.9421 129.346 15.8967C129.047 14.8514 128.594 13.9341 127.986 13.1447C127.378 12.3554 126.61 11.7261 125.682 11.2567C124.754 10.7874 123.661 10.5527 122.402 10.5527C121.506 10.5527 120.711 10.6914 120.018 10.9687C119.325 11.2461 118.733 11.5927 118.242 12.0087C117.751 12.4247 117.357 12.8781 117.058 13.3687C116.759 13.8594 116.546 14.3074 116.418 14.7127H116.354V10.9367H115.138V33.2727H116.354ZM119.506 26.0887C120.285 26.5047 121.25 26.7127 122.402 26.7127C123.469 26.7127 124.391 26.5101 125.17 26.1047C125.949 25.6994 126.589 25.1554 127.09 24.4727C127.591 23.7901 127.965 22.9954 128.21 22.0887C128.455 21.1821 128.578 20.2167 128.578 19.1927C128.578 18.2541 128.461 17.3314 128.226 16.4247C127.991 15.5181 127.629 14.7074 127.138 13.9927C126.647 13.2781 126.013 12.7021 125.234 12.2647C124.455 11.8274 123.511 11.6087 122.402 11.6087C121.314 11.6087 120.386 11.8221 119.618 12.2487C118.85 12.6754 118.226 13.2407 117.746 13.9447C117.266 14.6487 116.919 15.4541 116.706 16.3607C116.493 17.2674 116.386 18.2114 116.386 19.1927C116.386 20.1741 116.482 21.1181 116.674 22.0247C116.866 22.9314 117.191 23.7314 117.65 24.4247C118.109 25.1181 118.727 25.6727 119.506 26.0887ZM132.684 10.9367H133.9V27.3847H132.684V10.9367Z" fill="#FBFCFE"/>
<circle cx="18.3848" cy="4.24264" r="3" transform="rotate(45 18.3848 4.24264)" fill="#FBFCFE"/>
<circle cx="25.4558" cy="11.3137" r="3" transform="rotate(45 25.4558 11.3137)" fill="#FBFCFE"/>
<circle cx="32.5269" cy="18.3847" r="3" transform="rotate(45 32.5269 18.3847)" fill="#FBFCFE"/>
<circle cx="11.3137" cy="11.3137" r="3" transform="rotate(45 11.3137 11.3137)" fill="#FBFCFE"/>
<circle opacity="0.5" cx="18.3848" cy="18.3847" r="3" transform="rotate(45 18.3848 18.3847)" fill="#FBFCFE"/>
<circle opacity="0.5" cx="25.4558" cy="25.4559" r="3" transform="rotate(45 25.4558 25.4559)" fill="#FBFCFE"/>
<circle cx="4.24268" cy="18.3847" r="3" transform="rotate(45 4.24268 18.3847)" fill="#FBFCFE"/>
<circle opacity="0.5" cx="11.3137" cy="25.4559" r="3" transform="rotate(45 11.3137 25.4559)" fill="#FBFCFE"/>
<circle opacity="0.25" cx="18.3848" cy="32.5269" r="3" transform="rotate(45 18.3848 32.5269)" fill="#FBFCFE"/>
</svg>
